<?xml version="1.0" encoding="UTF-8" standalone="no"?><svg xmlns="http://www.w3.org/2000/svg" xmlns:xlink="http://www.w3.org/1999/xlink" fill="none" height="180" preserveAspectRatio="xMidYMid meet" style="fill: none" version="1" viewBox="0.0 0.0 959.0 180.0" width="959" zoomAndPan="magnify"><g id="change1_1"><path d="M0 30V150C0 157.956 3.16071 165.587 8.7868 171.213C14.4129 176.839 22.0435 180 30 180H180V0H30C22.0435 0 14.4129 3.1607 8.7868 8.78679C3.16071 14.4129 0 22.0435 0 30V30ZM152 160C149.627 160 147.307 159.296 145.333 157.978C143.36 156.659 141.822 154.785 140.913 152.592C140.005 150.399 139.768 147.987 140.231 145.659C140.694 143.331 141.836 141.193 143.515 139.515C145.193 137.836 147.331 136.694 149.659 136.231C151.987 135.768 154.399 136.005 156.592 136.913C158.785 137.822 160.659 139.36 161.978 141.333C163.296 143.307 164 145.627 164 148C164 151.183 162.736 154.235 160.485 156.485C158.235 158.736 155.183 160 152 160ZM152 102C149.627 102 147.307 101.296 145.333 99.9776C143.36 98.6591 141.822 96.7849 140.913 94.5922C140.005 92.3995 139.768 89.9867 140.231 87.6589C140.694 85.3311 141.836 83.1929 143.515 81.5147C145.193 79.8365 147.331 78.6936 149.659 78.2306C151.987 77.7676 154.399 78.0052 156.592 78.9135C158.785 79.8217 160.659 81.3598 161.978 83.3332C163.296 85.3066 164 87.6266 164 90C164 93.1826 162.736 96.2349 160.485 98.4853C158.235 100.736 155.183 102 152 102ZM152 44C149.627 44 147.307 43.2962 145.333 41.9776C143.36 40.6591 141.822 38.7849 140.913 36.5922C140.005 34.3995 139.768 31.9867 140.231 29.6589C140.694 27.3311 141.836 25.193 143.515 23.5147C145.193 21.8365 147.331 20.6936 149.659 20.2306C151.987 19.7676 154.399 20.0052 156.592 20.9135C158.785 21.8217 160.659 23.3598 161.978 25.3332C163.296 27.3066 164 29.6266 164 32C164 35.1826 162.736 38.2348 160.485 40.4853C158.235 42.7357 155.183 44 152 44V44Z" fill="#8f9091"/></g><g id="change2_1"><path d="M205 0V180H929C936.956 180 944.587 176.839 950.213 171.213C955.839 165.587 959 157.956 959 150V30C959 22.0435 955.839 14.4129 950.213 8.78679C944.587 3.1607 936.956 0 929 0H205ZM233 160C230.627 160 228.307 159.296 226.333 157.978C224.36 156.659 222.822 154.785 221.913 152.592C221.005 150.399 220.768 147.987 221.231 145.659C221.694 143.331 222.836 141.193 224.515 139.515C226.193 137.836 228.331 136.694 230.659 136.231C232.987 135.768 235.399 136.005 237.592 136.913C239.785 137.822 241.659 139.36 242.978 141.333C244.296 143.307 245 145.627 245 148C245 151.183 243.736 154.235 241.485 156.485C239.235 158.736 236.183 160 233 160ZM233 102C230.627 102 228.307 101.296 226.333 99.9776C224.36 98.6591 222.822 96.7849 221.913 94.5922C221.005 92.3995 220.768 89.9867 221.231 87.6589C221.694 85.3311 222.836 83.1929 224.515 81.5147C226.193 79.8365 228.331 78.6936 230.659 78.2306C232.987 77.7676 235.399 78.0052 237.592 78.9135C239.785 79.8217 241.659 81.3598 242.978 83.3332C244.296 85.3066 245 87.6266 245 90C245 93.1826 243.736 96.2349 241.485 98.4853C239.235 100.736 236.183 102 233 102ZM233 44C230.627 44 228.307 43.2962 226.333 41.9776C224.36 40.6591 222.822 38.7849 221.913 36.5922C221.005 34.3995 220.768 31.9867 221.231 29.6589C221.694 27.3311 222.836 25.193 224.515 23.5147C226.193 21.8365 228.331 20.6936 230.659 20.2306C232.987 19.7676 235.399 20.0052 237.592 20.9135C239.785 21.8217 241.659 23.3598 242.978 25.3332C244.296 27.3066 245 29.6266 245 32C245 35.1826 243.736 38.2348 241.485 40.4853C239.235 42.7357 236.183 44 233 44V44Z" fill="#8f9091"/></g><g id="change3_1"><path d="M233.5 28H151.5C149.291 28 147.5 29.7909 147.5 32C147.5 34.2091 149.291 36 151.5 36H233.5C235.709 36 237.5 34.2091 237.5 32C237.5 29.7909 235.709 28 233.5 28Z" fill="#131414"/></g><g id="change3_2"><path d="M233.5 86H151.5C149.291 86 147.5 87.7909 147.5 90C147.5 92.2091 149.291 94 151.5 94H233.5C235.709 94 237.5 92.2091 237.5 90C237.5 87.7909 235.709 86 233.5 86Z" fill="#131414"/></g><g id="change3_3"><path d="M233.5 144H151.5C149.291 144 147.5 145.791 147.5 148C147.5 150.209 149.291 152 151.5 152H233.5C235.709 152 237.5 150.209 237.5 148C237.5 145.791 235.709 144 233.5 144Z" fill="#131414"/></g></svg>