<?xml version="1.0" encoding="UTF-8" standalone="no"?><svg xmlns="http://www.w3.org/2000/svg" xmlns:xlink="http://www.w3.org/1999/xlink" fill="#696a6b" height="474.1" preserveAspectRatio="xMidYMid meet" version="1" viewBox="-0.0 -0.0 500.1 474.1" width="500.1" zoomAndPan="magnify"><g id="Layer_2"><g id="change1_1"><path d="M499.756897,283.7350464c-0.0087585,1.1845093,0.2721558,2.6063843,0.0809326,4.6021729 c-0.0603638,0.5190125-0.0835571,0.9982605-0.1720581,1.5506287l-0.4065857,1.8156738 c-0.0714722,0.3050537-0.1266174,0.6018372-0.2111206,0.9142456l-0.6013489,1.115387l-1.2070007,2.2376404 c-0.7568359,1.467804-1.4010315,2.877594-2.1115112,4.328125l-1.9098816,4.2781677l-1.8516541,4.3027954l-0.9172974,2.1673584 l-0.5710754,1.3903809l-4.2705994,10.6361694c-11.100708,28.0829773-21.8577881,56.5178833-30.9776306,85.2493591 c-1.3094482,4.1356812-3.0657349,8.4467468-5.0134888,12.2852173c-2.1706543,4.2762756-4.0911865,8.6076965-5.7175598,13.0832214 c-3.4640198,9.5335388-8.3700867,17.7476501-12.8269348,26.360321c-1.3856506,2.6781006-3.0924683,5.1100464-4.9098206,6.4242554 c-4.0258789,2.9111938-8.0172119,5.5400391-11.834137,6.5510864c-0.3684692,0.65625-0.7641907,1.1080627-1.1977539,0.6740112 c-0.0776062-0.0778503-0.1360779-0.2096863-0.1803284-0.3727417c-1.4396362,0.1578369-2.4364624-0.3895569-2.4691162-3.0361633 c-0.032196-2.6350098,0.9615784-5.0056763,2.5429382-7.1971741c1.5484924-2.1458435,2.9379578-4.4270325,4.2337036-6.7910767 c6.1778564-13.9087219,10.2054138-27.7050476,15.177948-41.0464783 c6.0938416-16.3456726,12.7741699-32.5320435,18.6630554-48.8928528 c6.6833801-18.5335999,13.9092102-36.8527832,21.7008972-55.0567322l2.8657532-6.5913391l0.5076599-1.0879211 c0.3583069-0.7298889,0.7241821-1.4966736,1.20224-2.2611084c0.0615234-0.0941772,0.1278076-0.1867065,0.2061462-0.2705078 c0.0343018-0.0305176,0.0960693-0.1114502,0.0269775-0.1311035c-0.0480652-0.0137329-0.0977478-0.0104065-0.1462708-0.0075684 c-0.1945496,0.0184631-0.3862305,0.0641479-0.579834,0.1095886c-0.3864746,0.0946655-0.7786255,0.20755-1.180481,0.3270569 l-1.2320557,0.3831482l-0.6361694,0.2068481l-0.3225708,0.1067505l-0.9906616,0.3518982 c-4.3486938,1.6826782-8.7113647,3.3528137-13.1246643,4.8151855 c-18.031189,6.6878662-36.0523987,13.5669861-54.3294678,19.9762878 c-11.2417603,3.9307556-22.5266113,7.8158264-34.1063232,11.270874 c-5.8034668,1.7163086-11.6582947,3.3362732-17.8113098,4.6469116c-1.5421143,0.3251648-3.1055298,0.6292725-4.7138977,0.8974304 c-0.8060608,0.1327515-1.6168823,0.2608032-2.451355,0.3727417l-1.2611694,0.1604614 c-0.407074,0.0539551-0.9665527,0.0835266-1.4427185,0.1221008c-3.9020996,0.324707-8.3691406,0.0101929-12.7310791-1.7434998 c-1.356781-0.4825439-2.6394958-1.2502747-3.9004517-1.9744873c-1.2017822-0.8269043-2.4080505-1.6687012-3.4214478-2.6650696 c-1.1000061-0.9480591-1.9413452-2.0161133-2.8468323-3.0671387c-0.7568359-1.0761108-1.5939331-2.1699829-2.1761169-3.2752075 c-1.3312378-2.2191772-2.1794434-4.4322205-2.9732056-6.6282349c-0.6913147-2.1761169-1.2614136-4.3377991-1.6467285-6.4462585 c-1.5529785-8.4488831-1.4325256-16.3761902-0.8886719-24.1174316c0.6158142-7.7216492,1.7783203-15.241394,3.3421936-22.600708 c1.5529785-7.3630676,3.4976501-14.5692444,5.7724609-21.6253662c0.82901-2.5886383,1.353241-5.3876495,2.0890198-8.0657501 c1.934021-6.9983826,3.9534607-13.9548645,6.0571594-20.8846283l3.9681702-12.759491 c0.5256042-1.6306,1.0335083-3.1755524,1.5487061-4.5912628c0.2631836-0.7052612,0.5123901-1.3873291,0.8221741-2.0043182 c0.0795288-0.1521759,0.1559753-0.3071899,0.2686157-0.4326172c0.015625-0.0321808,0.0795288-0.0641327,0.0608215-0.0911102 c-0.0551453,0.0234222-0.104126,0.0605774-0.154541,0.0934753l-0.2946472,0.2108765l-1.1402588,0.8642883l-7.899353,6.1925507 l-1.5162964,1.1916046l-0.1817627,0.1427002l-0.5306091,0.3779449l-1.168396,0.8264313l-2.3403625,1.6493225l-9.4090576,6.5475311 c-6.2973633,4.3387604-12.6416321,8.6256866-19.0357971,12.8591309 c-12.8039856,8.4578857-25.7345886,16.7434845-39.2085571,24.612793 c-3.8817596,2.2625122-8.3139954,4.282196-12.6198578,5.6931763c-4.7997894,1.570282-9.5349579,3.2143555-14.4305725,4.9304199 c-5.2255402,1.8104858-10.6680908,2.9033813-16.5664673,3.0342712c-2.9542694,0.0466309-6.0399017-0.1462708-9.3224182-0.8794556 c-3.2465515-0.7345886-6.8421936-2.0736389-10.0236664-4.6367188c-1.9695129-1.5778198-3.513504-3.6682739-4.3335419-5.6508179 c-0.7346039-1.7382813-0.9698486-3.3530579-0.8964844-4.6629791l-0.0487518-0.1528778 c-0.5279999-1.8634949-0.8105774-3.6351624-0.9866486-5.3377228c-0.7400513-4.7566986-0.6127319-8.9865875-0.342926-13.0477448 c0.2870636-4.0566559,0.7824097-7.9346313,1.3825836-11.7255096c1.2024841-7.5786743,2.806366-14.8231964,4.8305511-21.8854828 c5.0264893-17.2799988,11.7870331-33.7801971,18.003952-50.2964783 c14.1851501-37.3940582,32.3270874-72.9137421,49.8094482-108.392952 c0.9525757-2.0563698,1.9110413-4.1063499,2.8880005-6.1402397 c-14.7259369,13.7707558-29.4279633,27.7663383-44.6217651,41.1532249 c-22.2376404,19.6168213-44.4963379,39.6246109-68.9967194,56.3259659 c-2.2449951,1.5283813-4.3631287,3.4354095-6.5775909,5.1171417 c-12.4676819,9.4667969-24.9502792,18.9250641-37.945488,27.8522491 c-6.5054092,4.4537811-13.1338882,8.7816467-20.0466003,12.7978363 c-6.9209976,4.0038757-14.088829,7.7514496-21.9212189,10.7024078 c-7.7060089,2.8596039-16.3747635,5.0565491-25.9229622,4.0495453c-4.7548122-0.4842072-9.7484169-2.1377716-14.1042137-4.8958588 c-4.3962669-2.7434082-7.86623-6.6218567-10.4908314-10.6373291c-2.6047206-4.0542755-4.3676291-8.3009796-5.7234759-12.5001068 c-1.34354-4.2085876-2.2504354-8.3987122-2.9192472-12.5453033c-1.3177438-8.2964783-1.7243321-16.4337006-1.8147377-24.4717407 c-0.0452028-4.6274872,0.4593643-9.5448837,1.3941861-13.9688416c1.0399005-4.9297028,1.9572093-9.7763443,2.6624672-14.679306 C5.5840373,91.9988403,9.2040462,82.778656,12.595911,73.4325714c1.0569401-2.9102554,2.4996424-5.5947342,4.1785355-7.1344681 c3.7172775-3.4103241,7.4861469-6.436306,11.2162037-7.7024574c0.3206806-0.6834831,0.6752033-1.1184731,1.1402473-0.7282143 c0.0847244,0.064846,0.1519375,0.192646,0.2087364,0.3460045c1.4109898-0.1895676,2.4494705,0.2158356,2.6991501,2.8004417 c0.2560692,2.5677986-0.5038567,4.9668579-1.8433743,7.2738571c-1.3120632,2.2587204-2.4319553,4.658493-3.4252338,7.1401443 c-4.3865623,14.4601593-5.9336338,28.6985626-7.3981094,42.528717c-0.8813343,8.4806061-1.4938202,16.96595-1.3014126,25.2624283 c0.0996342,4.142334,0.4072971,8.2333069,1.0238075,12.1725769c0.6228981,3.9309845,1.5941658,7.6986694,2.9611359,11.0599976 c0.7985039,1.8781586,1.6826801,3.6439209,2.6854229,5.1973724c1.020731,1.5298004,2.1361275,2.8527527,3.3331738,3.9395142 c1.1901817,1.1030884,2.4856796,1.9252472,3.9051876,2.5521698c1.4268456,0.6120148,2.9334488,1.1201324,4.6582527,1.3281555 c3.3729324,0.5057526,7.4265099,0.1730042,11.4074287-0.6605225c4.0412712-0.8784943,8.2744751-2.3422546,12.4790459-4.0907288 c8.4337463-3.5262909,16.8121185-8.1253815,25.008728-13.1005249 c8.2030029-4.9959717,16.2578583-10.4200745,24.1709442-16.0933685c3.7113647-2.7978363,7.4104156-5.6110687,11.1896973-8.2839508 c15.2321472-11.596283,29.9635315-23.9617233,44.5550232-36.5299911 c17.9350891-15.4598236,35.3651428-31.59272,53.0635681-47.4172401 c10.9980011-9.8281708,21.8232422-19.907917,32.8792267-29.788393 c5.5407715-4.9382248,11.1089783-9.8260422,16.9659424-14.5765934c1.4701538-1.1880517,2.961853-2.3661642,4.5195618-3.5407262 c0.7788696-0.5873995,1.5757141-1.1733789,2.4227295-1.7676415c0.8588562-0.5987594,1.7068176-1.1840289,2.8596191-1.8642004 l0.4501343-0.2589102l0.5478821-0.2915697c0.1595154-0.085909,0.4110718-0.2080275,0.674469-0.3261227l0.3834229-0.1685046 c0.1495667-0.0629526,0.3919067-0.1528848,0.5866699-0.2200973c0.218689-0.0740758,0.3862305-0.1306384,0.6508179-0.2040042 c0.3985596-0.1036587,0.8094177-0.1817577,1.2202454-0.2319305l0.3078918-0.0324229l0.1699524-0.0127798l0.3367615-0.0085199 c0.4522705-0.0018933,0.9163513,0.0357362,1.3702698,0.1140719c0.2269592,0.0388129,0.4510803,0.0875656,0.6702576,0.1453115 c0.2432861,0.0693425,0.3559265,0.0882756,0.7816772,0.2586735c0.719696,0.2901498,1.4481506,0.7282144,2.0620728,1.2609445 c0.3076477,0.2653,0.5873718,0.5511899,0.8335266,0.8434696c0.1521606,0.1810477,0.1474304,0.1881478,0.2210388,0.2854164 l0.1637573,0.2361906c0.2137146,0.3202059,0.4082642,0.6621852,0.5760498,1.0155239 c0.1677856,0.3531027,0.3085938,0.7168546,0.4205627,1.0787134c0.0849609,0.2903867,0.0986633,0.3916788,0.1436462,0.5997062 c0.072876,0.3665919,0.1244812,0.739574,0.1538391,1.1101894l0.0160828,0.2577271l0.0002441,0.1517015l-0.0042725,0.3038759 c-0.0227051,0.9348216-0.122345,1.3063846-0.2118225,1.8516574c-0.0889587,0.3708525-0.1893311,0.8183832-0.2861023,1.1196566 c-0.1957397,0.6640778-0.3959351,1.2169247-0.598053,1.7482347c-0.8079834,2.0724649-1.656189,3.7863827-2.5287476,5.5161591 c-1.2798767,2.5081615-2.2977905,5.202343-3.507843,7.7299118c-6.8388672,14.1553326-13.654541,28.0571957-20.2008972,42.1285095 c-6.5624695,14.0455246-12.9223175,28.1513901-19.1501312,42.2761917 c-6.1397705,13.9316864-12.1690063,27.9189911-17.7036285,42.031723 c-5.5256348,14.1058655-10.5928345,28.3568115-14.5313873,42.6834869 c-1.1355133,4.1203156-2.6236572,8.4235687-4.2594757,12.2890015c-1.8178253,4.3053894-3.2908173,8.6742096-4.2753296,13.121109 c-1.0458221,4.7309113-2.3124542,9.162674-3.3859558,13.445343c-1.06427,4.2507172-1.9792175,8.4815674-1.9756622,12.125946 c-0.000946,0.1630554-0.0052185,0.3052979-0.0068665,0.4633942c0.2234039,1.2299347,0.1486206,2.3512421-0.0788116,3.4122162 c-0.323288,1.5889587-0.2316895,2.8250427,0.3166504,3.8204498c0.5076447,0.59758,1.2680511,1.1068878,2.3439178,1.4765472 c1.0654602,0.3708649,2.3993073,0.5729675,3.8323059,0.6087036c2.8865814,0.0726624,6.1033173-0.47995,9.267746-1.3085175 c6.3764343-1.6945038,12.6610413-4.4237213,18.9016266-7.1907806c7.6612854-3.4205017,15.2929688-7.2440491,22.8063354-11.3347778 c7.5128937-4.0975952,14.9086456-8.479187,22.0830841-13.1731873c7.0691528-4.6281891,14.1158142-9.3129425,21.1480408-14.0369873 l10.5362854-7.1162415l13.7345276-9.3730774l9.7600098-6.7638397c3.2472839-2.2464142,6.5608215-4.6267853,9.7420349-6.7245789 c1.5723877-1.0114899,2.9322815-1.5792542,4.0614014-1.8599396c0.5611267-0.1334686,1.1672058-0.3696594,1.6881104-0.4851532 c0.5353394-0.136322,1.0212097-0.2156067,1.4710999-0.2601013c1.8029175-0.1701508,2.9587708,0.2454224,3.9660034,0.5606689 l0.7254028,0.2380829c0.2233887,0.0904083,0.5114136,0.0811768,0.7386169,0.1483765 c0.2376099,0.0553894,0.4536743,0.1221313,0.6733093,0.2215271c0.0608215,0.0312347,0.0998535,0.0404663,0.1971436,0.1112366 c0.0118103,0.0260315-0.030304,0.0101624-0.0296021,0.0279236c-0.0324097,0.0099335-0.0160828,0.0544281-0.0016479,0.0977325 c0.1730042,0.4018555,0.8091431,0.8993225,1.5527649,1.610733c0.366333,0.4037476,0.7627563,0.8058472,1.0552673,1.5122833 l0.2371521,0.4759369l0.1121826,0.7073822l0.1088562,0.7121277c0.0241394,0.2539368,0.1107483,0.4214935,0.0371399,0.8103333 l-0.2359314,2.0471344l-0.0591736,0.511673c-0.0433044,0.1980896-0.1131287,0.4271851-0.1685181,0.6392365l-0.3528442,1.2964325 l-0.3526306,1.2959747l-0.1763306,0.6475067c-0.0993958,0.2466125-0.3327332,0.594986-0.4927368,0.8872528l-2.1235657,3.663559 l-0.0603638,0.6766205c-0.0066223,0.0572815-0.0066223,0.1102905-0.0184631,0.1713409l-0.0927734,0.2215271l-0.1853027,0.4425507 l-0.7407532,1.7702484c-0.4806519,1.1700745-1.0223999,2.3851013-1.4273071,3.4974213 c-0.8728333,2.2707825-1.7387695,4.5351868-2.5188293,6.7475128c-0.8226318,2.2322235-1.5591431,4.4334259-2.3209534,6.6410217 l-1.9650269,5.9348297c-1.3137207,4.4104614-2.5959473,8.8244781-4.0145264,13.1679688 c-2.6077881,9.079361-4.9209595,18.2335205-6.8693848,27.4120483c-1.9404297,9.1747437-3.5331726,18.3897095-4.4942627,27.510498 c-0.5952148,5.6004028-0.8912659,11.1717224-0.7582703,16.5482483c0.0636597,2.6885071,0.2804565,5.3045654,0.6257324,7.8061218 c0.3507385,2.4937134,0.8633728,4.8717041,1.5735779,6.9205017c0.7026672,2.052124,1.620697,3.7232056,2.5517273,4.7962341 c0.9554138,1.0756531,1.7688293,1.6568909,2.9772339,2.0525818c1.2367859,0.3753662,2.8880005,0.4958191,5.0189209,0.268158 c2.4833069-0.288269,5.1862488-0.780304,7.9014893-1.3402405c6.7801819-1.4150085,13.7265015-3.3494873,20.639679-5.3933105 c6.9228821-2.0542603,13.8516846-4.2599487,20.7854614-6.4753723c13.8694458-4.4417114,27.7632751-8.9352417,41.8076172-12.844696 c2.5753784-0.7175598,5.1443481-1.8461914,7.7272949-2.7485962c7.2731628-2.5393982,14.5115051-5.1817627,21.7510681-7.8641052 l5.6470337-2.0939941l8.4290161-3.0700073c2.8101501-1.0013428,5.6373291-1.9920044,8.3684082-2.8231812 c1.3570557-0.4039612,2.6681519-0.7388611,3.8839111-0.9603577c1.1927795-0.1964417,2.2852173-0.2892151,3.2792053-0.3098145 c2.0123596-0.0549011,3.5873413,0.1621399,5.0972595,0.4387817c0.3736877,0.0771484,0.7348328,0.1706543,1.1018982,0.2972412 c0.1850891,0.0700684,0.3680115,0.1358643,0.5663452,0.2478027c0.1898193,0.0705261,0.480896,0.3916626,0.4274292,0.513092 C499.8276367,282.6376343,499.7575989,283.1149902,499.756897,283.7350464z" fill="inherit"/></g></g></svg>