<?xml version="1.0" encoding="UTF-8" standalone="no"?><svg xmlns="http://www.w3.org/2000/svg" xmlns:xlink="http://www.w3.org/1999/xlink" fill="#2b2b2b" height="24" preserveAspectRatio="xMidYMid meet" version="1" viewBox="0.0 0.0 24.2 24.0" width="24.2" zoomAndPan="magnify"><g id="change1_1"><path d="M23.414,20.587l-4.5-4.5c-0.195-0.195-0.512-0.195-0.707,0L17.5,16.793l-0.949-0.949C18.068,14.16,19,11.94,19,9.5 C19,4.262,14.738,0,9.5,0S0,4.262,0,9.5S4.262,19,9.5,19c2.439,0,4.66-0.932,6.344-2.449l0.949,0.949l-0.706,0.706 c-0.195,0.195-0.195,0.512,0,0.707l4.5,4.5c0.38,0.38,0.882,0.59,1.414,0.59s1.034-0.21,1.414-0.59 C24.193,22.634,24.193,21.366,23.414,20.587z M1,9.5C1,4.813,4.813,1,9.5,1S18,4.813,18,9.5S14.187,18,9.5,18S1,14.187,1,9.5z M22.706,22.706c-0.381,0.383-1.031,0.383-1.413,0l-4.146-4.146l1.413-1.412l4.147,4.147 C23.103,21.689,23.103,22.311,22.706,22.706z" fill="inherit"/><path d="M9.5,2.5c-3.86,0-7,3.141-7,7C2.5,9.776,2.724,10,3,10s0.5-0.224,0.5-0.5c0-3.309,2.691-6,6-6C9.776,3.5,10,3.276,10,3 S9.776,2.5,9.5,2.5z" fill="inherit"/></g></svg>