<?xml version="1.0" encoding="UTF-8" standalone="no"?><svg xmlns="http://www.w3.org/2000/svg" xmlns:xlink="http://www.w3.org/1999/xlink" fill="#2b2b2b" height="24" preserveAspectRatio="xMidYMid meet" version="1" viewBox="0.0 0.0 24.0 24.0" width="24" zoomAndPan="magnify"><g id="change1_1"><path d="M2.5,12h2.15c0.276,0,0.5-0.224,0.5-0.5S4.927,11,4.65,11H3V9h1.65C4.888,9,5.092,8.833,5.14,8.602 c0.185-0.889,0.529-1.714,1.025-2.453C6.298,5.95,6.272,5.686,6.104,5.517L4.927,4.34L6.34,2.927l1.177,1.177 C7.686,4.272,7.95,4.297,8.148,4.165c0.737-0.495,1.563-0.84,2.454-1.026C10.834,3.091,11,2.887,11,2.65V1h2v1.65 c0,0.237,0.166,0.441,0.397,0.489c0.891,0.186,1.717,0.531,2.454,1.026c0.199,0.133,0.463,0.108,0.632-0.062l1.177-1.177 l1.413,1.413l-1.177,1.177c-0.169,0.169-0.194,0.434-0.062,0.632c0.496,0.738,0.841,1.564,1.025,2.453 C18.908,8.833,19.112,9,19.35,9H21v2h-1.65c-0.276,0-0.5,0.224-0.5,0.5s0.224,0.5,0.5,0.5h2.15c0.276,0,0.5-0.224,0.5-0.5v-3 C22,8.224,21.776,8,21.5,8h-1.754c-0.189-0.73-0.478-1.42-0.859-2.059l1.247-1.248c0.195-0.195,0.195-0.512,0-0.707l-2.12-2.12 c-0.195-0.195-0.512-0.195-0.707,0L16.06,3.114C15.421,2.732,14.73,2.444,14,2.254V0.5C14,0.224,13.776,0,13.5,0h-3 C10.224,0,10,0.224,10,0.5v1.754c-0.73,0.19-1.421,0.479-2.06,0.86L6.693,1.866c-0.195-0.195-0.512-0.195-0.707,0l-2.12,2.12 c-0.195,0.195-0.195,0.512,0,0.707l1.247,1.248C4.731,6.58,4.443,7.27,4.254,8H2.5C2.224,8,2,8.224,2,8.5v3 C2,11.776,2.224,12,2.5,12z" fill="inherit"/><path d="M15.5,10.5c0.276,0,0.5-0.224,0.5-0.5c0-2.206-1.794-4-4-4s-4,1.794-4,4c0,0.276,0.224,0.5,0.5,0.5S9,10.276,9,10 c0-1.654,1.346-3,3-3s3,1.346,3,3C15,10.276,15.224,10.5,15.5,10.5z" fill="inherit"/><path d="M12,13c-1.379,0-2.5,1.122-2.5,2.5S10.621,18,12,18s2.5-1.122,2.5-2.5S13.379,13,12,13z M12,17c-0.827,0-1.5-0.673-1.5-1.5 S11.173,14,12,14s1.5,0.673,1.5,1.5S12.827,17,12,17z" fill="inherit"/><path d="M14.5,19h-5C8.121,19,7,20.122,7,21.5v2C7,23.776,7.224,24,7.5,24S8,23.776,8,23.5v-2C8,20.673,8.673,20,9.5,20h5 c0.827,0,1.5,0.673,1.5,1.5v2c0,0.276,0.224,0.5,0.5,0.5s0.5-0.224,0.5-0.5v-2C17,20.122,15.879,19,14.5,19z" fill="inherit"/><path d="M21,16c0-1.103-0.897-2-2-2s-2,0.897-2,2s0.897,2,2,2S21,17.103,21,16z M18,16c0-0.551,0.448-1,1-1s1,0.449,1,1 s-0.448,1-1,1S18,16.551,18,16z" fill="inherit"/><path d="M21.5,19h-3c-0.276,0-0.5,0.224-0.5,0.5s0.224,0.5,0.5,0.5h3c0.827,0,1.5,0.673,1.5,1.5v1c0,0.276,0.224,0.5,0.5,0.5 s0.5-0.224,0.5-0.5v-1C24,20.122,22.879,19,21.5,19z" fill="inherit"/><path d="M5,14c-1.103,0-2,0.897-2,2s0.897,2,2,2s2-0.897,2-2S6.103,14,5,14z M5,17c-0.552,0-1-0.449-1-1s0.448-1,1-1s1,0.449,1,1 S5.552,17,5,17z" fill="inherit"/><path d="M5.5,19h-3C1.121,19,0,20.122,0,21.5v1C0,22.776,0.224,23,0.5,23S1,22.776,1,22.5v-1C1,20.673,1.673,20,2.5,20h3 C5.776,20,6,19.776,6,19.5S5.776,19,5.5,19z" fill="inherit"/></g></svg>