<?xml version="1.0" encoding="UTF-8" standalone="no"?><svg xmlns="http://www.w3.org/2000/svg" xmlns:xlink="http://www.w3.org/1999/xlink" fill="#696a6b" height="448.8" preserveAspectRatio="xMidYMid meet" version="1" viewBox="-0.3 -0.0 500.4 448.8" width="500.4" zoomAndPan="magnify"><g id="Layer_2"><g><g><g id="change1_1"><path d="M189.0383911,184.4201813c-0.9954681,0.2024384-22.1022186,72.7383575-30.4764709,110.554306 c-0.5856781,2.6459045-34.4268875-110.3518677-35.422348-110.554306 C83.5994873,176.3753815,4.5286713,149.7906189,7.1787453,149.2068939 c39.9781113-8.8034363,117.7252502-30.2128525,117.9271851-31.2083206 c7.6013718-37.5319443,20.1360855-70.7621613,28.5100937-108.5781097 c0.5859375-2.6454062,25.8546295,71.0461578,33.4562378,108.5781097 c0.2017059,0.9954681,74.743042,22.4048843,114.7211609,31.2083206 C304.443512,149.7906189,228.5784607,176.3753815,189.0383911,184.4201813z M493.6330261,321.8157349 c-32.3470154-7.1230469-92.836853-24.8626099-93.0002136-25.6679077 c-6.1504211-30.3681335-16.2925415-57.2550659-23.0682068-87.8526611 c-0.4739075-2.1407928-20.9195251,57.4845276-27.0699463,87.8526611 c-0.163147,0.8052979-61.3475037,18.5448608-93.6942749,25.6679077 c-2.1444702,0.472168,60.1105347,21.5661316,92.1032715,28.0750122 c0.8053284,0.164093,17.8835144,58.8543701,24.6591797,89.4519653 c0.4739075,2.1408081,27.8553772-89.2878723,28.6609497-89.4519653 C434.2165527,343.3818665,495.7772827,322.2879028,493.6330261,321.8157349z" fill="#2b2b2b"/></g><g id="change2_1"><path d="M499.9571533,325.2531738c0.0216064-0.2874146,0.0297241-0.5704346,0.0135193-0.8352661 c-0.0218811-0.3562317-0.0636292-0.6535034-0.1356201-0.9846802c-0.0793457-0.3621216-0.1945801-0.7345581-0.3466492-1.0981445 c-0.2333984-0.5650635-0.5613708-1.0966797-0.9284058-1.5482483c-0.6603699-2.0155029-1.5337219-3.9720154-2.4618835-5.9143066 c-0.6950073-1.4529114-2.0221252-2.5102844-3.4983826-3.1903076c-4.7493286-2.1879883-9.2468872-4.936554-14.5549011-5.9369507 c-2.4928284-0.4702148-4.8923035-1.2676697-7.2500305-2.3260193c-2.1162415-0.9497681-4.5108032-1.5899963-6.8260193-1.8366699 c-16.0847168-1.7206726-31.9613342-5.1728821-47.7020874-8.6589661l-4.2651367-0.9556885 c-1.3398743-0.2982483-3.1893005-0.7468262-3.3580933-0.725708c-0.5537415-0.0884399-1.1335449-0.1837769-1.7297668-0.3100281 c-0.1395569-0.0417786-0.3201294-0.0452271-0.4223328-0.1395569l-0.1321716-0.3935547l-0.2675171-0.8161316l-0.2427368-0.7655334 l-0.1186523-0.3660278l-0.2454224-0.9045715l-1.0291443-3.9022827l-2.1036987-7.768158 c-1.3851013-5.1783142-2.7839661-10.3266296-4.035675-15.5098267c-0.3507996-1.4293518-0.9296265-2.8301697-1.1037903-4.2712708 c-0.4832458-3.9214478-1.1401672-7.7991486-1.9088745-11.6385193l-0.5915833-2.8704376l-1.1598206-4.750824 l-2.5230713-10.1733246l-2.5572205-10.529541l-1.3197327-5.2873688l-0.6652832-2.6517944l-0.0832825-0.331665 l-0.0417786-0.1660767c-0.0166931-0.0363464-0.0351257-0.0594482-0.0528259-0.0894165l-0.2134705-0.3424683l-0.4274902-0.68396 l-1.7199402-2.7333527l-0.8647766-1.3664398c-0.0769043-0.144455-0.1333923-0.1572266-0.1950684-0.2039032l-0.1835022-0.1282349 l-0.3675232-0.2555084l-1.475769-1.0121765l-0.7416992-0.5011597l-0.5387573-0.3881683 c-0.2871704-0.2058716-0.5753479-0.4029083-0.864502-0.5935516l-0.4346008-0.2810516l-0.217926-0.137085 c-0.0378113-0.02211-0.0690308-0.0471649-0.1125183-0.06633c-0.1090698-0.0157166-0.1815491,0.0034485-0.242218,0.00737 c-0.872406,0.14151-1.5418396,0.3252716-2.3653564,0.6529999c-0.7996521,0.3282166-1.664917,0.8269348-2.5920715,1.6504364 c-0.4672852,0.3527832-0.9635315,0.6480865-1.4703674,1.1178131c-0.5087891,0.4466248-1.0252075,1.0509796-1.5600281,1.6848145 c-1.0743103,1.2603149-2.1422729,3.265976-3.0964661,5.7993622c-0.968689,2.4724579-1.9081421,5.1183472-2.8387451,7.7770233 c-1.8592529,5.3355255-3.6725464,10.7983093-5.4544373,16.2684631l-2.1270142,6.6321869l-1.1541748,3.7160492 l-2.2508545,7.4517517c-1.4787292,4.9763641-2.9200745,9.9689178-4.3457031,14.9816132 c-0.8517761,2.3766479-1.4809265,4.8392639-2.0594788,7.322052c-0.7770691,2.7692261-1.5421143,5.5497437-2.2815857,8.3518982 l-1.0863647,4.2226257l-0.2636108,1.0627747l-0.0422363,0.1660767l-0.0135193,0.0432434l-0.0265198,0.0869751 l-0.1026917,0.3409729l-0.1280212,0.4515686c0.0041809,0.0933533-0.0938416,0.1095581-0.1704712,0.1296997l-0.2336426,0.0614319 l-0.4596558,0.1149597l-1.4212341,0.3886719l-10.9864807,3.0605774 c-7.3451233,2.0818481-14.6787109,4.2845459-21.9447327,6.7466736 c-8.7808533,2.9741211-17.8756714,5.0471191-26.7984924,7.6242065 c-7.2802734,2.1010132-14.3728638,5.2156372-22.3994751,6.3486938c-1.4637146-0.0285034-2.9308929-0.1862183-4.4044342-0.5557251 c-1.5054779-0.3778381-2.8394928-0.1469116-3.8747559,1.1300964c-1.0399323,1.2824097-0.8669739,2.4419861-0.2353516,3.668396 c-0.0479126,0.1169434-0.0776367,0.2324219-0.078125,0.3395081c-0.0029449,0.5969849,0.33461,0.7409668,0.7448883,0.7625732 c0.5257263,0.8126831,1.1114197,1.5752563,1.7364044,2.3049011c0.0144958,1.171875,0.2329102,2.3648682,0.4869232,3.5254211 c0.3987274,1.7187195,0.9699249,3.414856,1.5902405,5.0986938c0.5608826,1.5212097,1.8111115,2.7068176,3.2391968,3.5136108 c4.5894165,2.5908813,8.9118042,5.6318054,14.1576538,6.9309387c2.4616394,0.6087646,4.8114929,1.5266113,7.1127014,2.6930542 c2.0656433,1.0470581,4.4277649,1.789978,6.7260437,2.1260681c15.9736633,2.321106,31.6296692,6.0695801,47.5138855,9.2127075 l5.7249146,1.0873718l2.7918396,0.4996948l1.1114197,0.1066284l0.9458313,0.0923767l0.242981,0.0240479 c0.0773926,0.0098267,0.1798401-0.0019531,0.2058716,0.0810852c0.0771484,0.1262817,0.1427307,0.2594299,0.2085876,0.3935547 c0.2611389,0.5395203,0.5080261,1.1138916,0.7573853,1.7128601l0.0914001,0.2240295 c0.0095825,0.0172119,0.0397949,0.1007385,0.0739441,0.1994934l0.0946045,0.2697449l0.3756104,1.0819397l0.7397461,2.176178 l1.4342346,4.3842773c1.8690796,5.8710938,3.5725708,11.8139343,5.028656,17.8260193 c0.3388062,1.3978882,0.9033508,2.7687378,1.0623169,4.1794128c0.3218079,2.8601074,0.7296448,5.7015686,1.2020569,8.5282898 c0.2366028,1.4136047,0.4881592,2.8232727,0.753479,4.2299805l0.4075928,2.1083679 c0.041748,0.2466736,0.2075806,0.955658,0.3370361,1.5251465l0.4095459,1.7781677l3.5143433,14.9664001 c1.1964417,5.1011658,2.4051514,10.2715759,3.5799561,15.7324219l0.703125,2.4616394 c0.0609131,0.1930847,0.1122742,0.4382629,0.1810608,0.5891113l0.2115173,0.4274597l0.4230347,0.85495 c0.1430054,0.2643433,0.278595,0.6161499,0.4282227,0.8092651l0.4544983,0.5158997l0.8831787,1.0077515 c0.270752,0.3331299,0.5736694,0.6210632,0.8195801,0.9910583l0.7446289,1.0996094l0.7168884,0.8544617 c0.2373047,0.2736816,0.4564514,0.4436951,0.6864014,0.6706848c0.6967163,0.605835,1.3588257,0.9620667,1.9253235,1.1217346 c0.2989807,0.1066284,0.5549927,0.1390686,0.8188477,0.1886902l0.3731689,0.0447083 c0.2744141,0.0166931,0.4225464,0.0157166,0.598938,0.0137634c1.2988892-0.0299683,2.6977539-0.4358215,4.3901978-2.2297363 c0.2080688-0.2073364,0.4210815-0.4839783,0.6365356-0.7119446l0.6851807-0.5346069 c0.4665222-0.3596497,0.9514771-0.8121948,1.4423523-1.4293213c0.4878845-0.591095,0.9831848-1.3747864,1.4858093-2.1673279 c0.2466736-0.4515381,0.4972534-0.8657532,0.732605-1.421936c0.2432251-0.4957886,0.4714355-1.0903015,0.6984558-1.6931763 c0.9030762-2.4365845,1.7582703-5.1547241,2.620575-7.8114319l2.5631104-8.0796814l4.1138-13.2393188l2.8819885-9.4633179 l4.4307251-14.5502319c0.8871155-2.2901611,1.5656738-4.6609192,2.2113037-7.0439453l4.801178-14.7256165l1.2084656-3.6526794 l0.3021851-0.90802l0.072937-0.1965332l0.1135254-0.2947998c0.0820313-0.1881714,0.1314392-0.4014282,0.2427063-0.5635681 l0.6139526-0.1238098l1.9373779-0.4486084l3.8474731-0.9266968c2.5562134-0.6352844,5.0962524-1.3049927,7.6227417-2.0090942 c5.0525208-1.4091797,10.0512085-2.957428,14.9951477-4.6687622c8.7260437-3.0232544,17.7142334-5.2824707,26.4948425-8.1804199 c7.1731567-2.3742065,14.0362854-5.795929,21.9896851-7.5529785c1.4735413-0.0899048,2.9650269-0.063385,4.5171814,0.1449585 c1.60672,0.20047,2.9375305-0.1680603,4.1538391-1.7442932c0.3277283-0.40979,0.5923157-0.8077698,0.9409485-1.287323 c0.1614075-0.2348633,0.4080505-0.5213318,0.7291565-0.9025879c0.0198975-0.0240784,0.0262756-0.0383301,0.0557556-0.0693054 l0.1181641-0.115448l0.2159424-0.2289734l0.1899109-0.2235718c0.0737-0.0884399,0.057251-0.0889282,0.2908936-0.3355713 c0.0980225-0.1091003,0.1778564-0.2210999,0.2653198-0.3321533c0.8981628-0.5979614,1.210907-1.4067383,1.2573547-2.361908 c0.0031738-0.0108032,0.0090942-0.0196533,0.0122681-0.0304565c0.0808411-0.2584534,0.1373291-0.5208435,0.1832886-0.7832031 c0.0051575-0.0093384,0.0169373-0.0177002,0.0216064-0.0275269 C500.0207825,325.6030273,500.0222473,325.4094238,499.9571533,325.2531738z M459.138092,324.0007324 c-2.2692871,0.2201233-4.6228333,0.8431702-6.71521,1.7658997 c-14.5455627,6.3983154-29.8146362,11.1176758-44.9812622,15.3182068l-1.949646,0.5046082l-2.4324036,0.5969849 c-1.6359253,0.3444214-3.2256775,0.8328247-4.4739685,1.5963745c-0.3372803,0.1714783-0.5964661,0.3876953-0.8979187,0.5788269 l-0.109314,0.0732117l-0.0548096,0.0368347l-0.0272522,0.0186768l-0.0137634,0.0093384 c-0.0562439-0.0560303,0.4432068,0.5193481,0.2247925,0.2805481c-0.0783691,0.0574951-0.1424866,0.118927-0.2102966,0.177887 l-0.3925781,0.3611145c-0.2456665,0.2574768-0.5591736,0.4554749-0.7611084,0.7753601 c-0.2166748,0.3021851-0.3800354,0.6608582-0.5579224,1.0057678c-0.6782837,1.4224548-1.1138611,3.0512695-1.5966187,4.6073608 l-0.6928101,2.3491211l-0.4056091,1.4828796l-0.805542,2.9554443l-1.6202087,5.8883057 c-2.1818237,7.8345032-4.4973145,15.6159363-7.1913452,23.2858582c-0.4783325,1.3619995-0.7497864,2.8247375-1.3826599,4.1002808 c-0.862793,1.7388611-1.6853027,3.4934692-2.4746704,5.2603455l-1.131073,2.5677795l-0.5254822,0.7792664 c-0.6325989,0.9232483-1.0708923,1.6121216-1.4359741,2.269043c-0.362854,0.6490784-0.6522522,1.2666931-0.924469,1.8391113 c-0.2714539,0.5645447-0.5188599,1.0863647-0.7571411,1.3276062l-0.0906677,0.085022 c-0.0095825,0.0049133-0.0152283,0.0191345-0.0336609,0.0127563l-0.0134888-0.092865l-0.0245972-0.1827698l-0.0965271-0.6706848 c-0.0646057-0.4176636-0.1294861-0.7817383-0.197052-1.116333c-0.134613-0.6662903-0.2805481-1.2190552-0.4421997-1.7767334 l-0.7321167-2.4660645l-3.3649597-11.980957l-4.2199402-14.6951904 c-0.5166321-2.4164429-1.2580872-4.7871704-2.0434875-7.1500549l-3.1478271-11.0095825l-0.4311523-1.4573364 l-0.7662354-2.4754028c-0.528717-1.6347046-1.0352783-3.3087158-1.7546082-4.7960205 c-0.1616516-0.3901367-0.4011841-0.6991882-0.6043701-1.0465698c-0.2653198-0.2776184-0.6112366-0.4952698-0.8954773-0.732605 l-0.8822021-0.6849365l-0.2228088-0.1700134l-0.1177063-0.085968l-0.0152283-0.0108032l-0.0073547-0.0054016 c-0.0958252,0.1031799,0.8063049-0.9203186,0.4210815-0.4893799l-0.0272827-0.0201721l-0.0545349-0.0407715l-0.4370422-0.3262634 c-1.16745-0.8706665-2.6753845-1.5545959-4.3673401-1.9339294l-4.4375916-0.9689331l-2.797699-0.6461182l-4.7110291-1.1153564 l-9.4751282-2.2528076c-6.3381042-1.4902649-12.7157898-2.9264526-19.1502075-4.1956177 c-8.5322266-1.685791-16.8998413-4.2663574-25.3431091-6.4656067c0.4141846-0.0403137,0.8269348-0.0845337,1.2455444-0.1115417 c2.3346252-0.1508484,4.7731934-0.7124634,6.9493408-1.5895081c15.1243896-6.105957,30.7199402-10.7422791,46.2506409-15.7201233 l9.3323975-3.0360107c1.1340027-0.3636169,2.2542725-0.7414551,3.3453064-1.1473083 c0.5237732-0.2284851,1.0738525-0.4274597,1.53302-0.721283l0.3576965-0.2058716l0.2719421-0.2913818l0.5353394-0.5714417 l0.5198364-0.5542297l0.255249-0.2766113l0.1270142-0.1434937l0.0619202-0.0810547 c-0.0864868-0.0820618,0.7687073,0.6967163,0.4080505,0.364563l0.0029602-0.0049133l0.006134-0.0103149l0.0117798-0.0201416 l0.0240784-0.0402832c0.2565002-0.4284668,0.5137024-0.8519897,0.7333374-1.3448181 c0.2437134-0.4554749,0.4127502-1.0082397,0.6051025-1.5226746c0.1488647-0.5581665,0.3149414-1.1021118,0.4193726-1.6882629 l0.5935364-3.1131897l0.5078125-2.5279541l0.789093-3.8045044c0.5513-2.5368042,1.1490173-5.0736389,1.7924194-7.6035767 c1.2880859-5.0603638,2.7554626-10.094696,4.4263-15.0730286c0.461853-1.3762512,0.7200623-2.8512573,1.3448181-4.1410522 c1.7034912-3.516571,3.2686768-7.0822601,4.7459106-10.681366l1.0920105-2.7053528l0.2685242-0.6780548 c0.065094-0.1473999,0.079834-0.1405334,0.1203613-0.2191467l0.2017212-0.3375549 c0.2596741-0.4377899,0.4834595-0.8313599,0.6854248-1.2037964c0.4024048-0.7409515,0.7232666-1.4136047,1.0271606-2.0366211 c0.3014221-0.6151733,0.5849304-1.1811981,0.8492737-1.4961548c0.1071167-0.1248016,0.2051392-0.2613983,0.3171692-0.4078217 l0.045929-0.0535431c0.0144958-0.0309601,0.0503845-0.0270386,0.0491638,0.0378265l0.0424805,0.26091l0.0845032,0.4849548 c0.1110535,0.6151581,0.2341309,1.1227264,0.3675537,1.6121063c0.2626038,0.9640198,0.5982056,1.9088745,0.9119263,2.9804993 l3.3804626,11.4011841c1.4642029,4.9149475,2.8834534,9.7984314,4.2270508,14.6932068 c0.4699707,2.4075928,1.178009,4.7724609,1.8678589,7.1284485c0.6841736,2.6945496,1.2966614,5.390564,1.9206543,8.0856018 l0.8765564,4.0442505l1.3939514,6.6842651l2.0172119,4.3154907l0.2530518,0.5400085l0.063385,0.1351013l0.0157166,0.033905 l0.0081177,0.0167236c1.1246948-1.0146484,0.3181458-0.2727051,0.5719299-0.4952698l0.0447083,0.0599365l0.1739502,0.2235718 l0.696228,0.8711548l0.7284241,0.9094543l0.18573,0.2319336c0.0768738,0.0624084,0.17099,0.1080933,0.2554932,0.1626282 l0.5215759,0.3159485c1.4855652,0.7463379,3.2197876,1.2087097,4.8893738,1.7290344l4.1334534,1.1964417 c3.7536316,1.0603027,7.4836731,2.0538025,11.227478,2.9981689c7.4837036,1.8848267,15.0015259,3.5603027,22.5945435,4.9242859 c9.1746521,1.6474915,18.2048645,4.155304,27.3608398,6.0440369c0.3884277,0.0800781,0.7807617,0.1473999,1.1706543,0.2220764 c-0.583252,0.1572571-1.1647644,0.3302002-1.7435608,0.5346069 C464.1021729,323.2607727,461.6663208,323.7560425,459.138092,324.0007324z M293.2103577,162.3975677 c1.7889709-0.2176666,3.59198-0.3193665,5.4502563-0.2407532c1.9191895,0.0658417,3.5472717-0.4304199,5.0291748-2.1496429 c0.3945313-0.44664,0.7092285-0.8750916,1.0954285-1.3865814c0.0678101-0.1110382,0.2336426-0.2839966,0.3267517-0.4191132 c0.0346375-0.0594482,0.1314392-0.1596832,0.219635-0.2579651c0.0840149-0.0958099,0.1599426-0.1891632,0.2284851-0.2795715 l0.1589355-0.1739349c0.6392517,0.0402985,1.2984009-0.0481567,1.9791565-0.29039 c1.8192139-0.6485748,2.1626587-1.7703094,2.0189209-3.1686859c0.1105652-0.0820465,0.198761-0.1714783,0.2501221-0.2667999 c0.2854614-0.5335999-0.0329285-0.8225098-0.4911194-1.0367432c-0.7895813-3.5661774-2.6677551-6.9304352-4.7196045-10.2671661 c-0.9266968-1.5059662-2.6083374-2.645401-4.4530945-3.4109192c-5.93396-2.4645844-11.5898438-5.4907837-18.1407166-6.7938385 c-3.0763245-0.6122131-6.0558472-1.5526581-8.9982605-2.7554626c-2.6414795-1.079483-5.6062622-1.8617096-8.4509277-2.2405396 c-19.766098-2.6439362-39.3548279-7.0508118-58.7846069-11.5348358l-10.1111603-2.3913803l-2.1376038-0.4309082 l-0.5213165-0.1262817c-0.0764008-0.0334091-0.1953125-0.0314407-0.2314301-0.1095657l-0.0722198-0.2373199l-0.2984924-0.9753265 c-1.6327362-5.9202194-3.2657318-11.8424149-4.8994598-17.7660828 c-1.8135529-6.4882202-3.6209717-12.960228-5.3286438-19.4631882c-0.4626007-1.7609863-1.1603088-3.4969101-1.4531555-5.2598648 c-0.7979431-4.8073273-1.7978363-9.5758362-2.9402161-14.3124123c-0.5714264-2.3687782-1.1782379-4.7292023-1.8142853-7.0832405 l-0.9748383-3.5263901l-0.5021515-1.7600021l-0.2788391-0.9571419l-0.4716949-1.5300484 c-2.5245361-8.147007-5.2367706-16.4890785-8.0823975-24.4218559c-0.7144165-1.9644012-1.4347229-3.9229059-2.1904144-5.6593218 c-0.7529907-1.7550879-1.5752563-3.0433969-2.3731995-4.0531125c-0.7962341-1.0254388-1.5725555-1.8656404-2.3081055-2.4169304 c-0.3729248-0.2604134-0.7161255-0.6407151-1.0627747-0.9399447c-0.3427124-0.3011951-0.6768341-0.5620997-1.0035706-0.7930323 c-1.1865997-0.8092467-2.1560364-1.1831609-3.2939911-1.4637194c-0.078125-0.0162144-0.1569824-0.0324288-0.2675323-0.0442211 c-0.1832733-0.0162144-0.1822968,0.0309548-0.2471466,0.0511l-0.318634,0.154774l-0.6377716,0.3075825l-1.2777405,0.6161478 l-0.31987,0.154774c-0.1058807,0.0506086-0.20047,0.0830375-0.37146,0.2363373l-0.9129181,0.7424237l-1.8258362,1.4951656 l-0.9119415,0.7537246c-0.0766602,0.0830374-0.1508484,0.0805807-0.2292175,0.2338805l-0.2365875,0.5173874l-0.4729156,1.0347743 l-1.8887329,4.1464677l-1.136734,4.9370441l-1.1846313,4.7832518c-0.7991791,3.1686897-1.5548553,6.4155025-2.3857269,9.5075436 l-2.4980011,9.2520428l-1.0866089,3.9366646l-0.7045898,2.4950523 c-3.441391,12.144104-6.9456711,24.3977776-10.3357086,36.7880516c-0.9699173,2.9593735-1.7489471,5.9875412-2.4348679,9.0604172 c-0.9679489,3.5558701-1.8666229,7.1495743-2.7851944,10.734436l-1.9764404,8.2133331 c-0.0582199,0.1813049-0.0820541,0.3827591-0.1648407,0.5399933c-0.18573,0.0682907-0.3771133,0.1110382-0.5628433,0.1616516 l-4.0585175,1.1222305l-13.4110336,3.7219467c-8.9601898,2.5161819-17.9105453,5.1404648-26.7965317,8.0109024 c-10.8985443,3.5195084-22.1314507,6.1324921-33.1867332,9.2368164 c-9.0208626,2.5299377-17.8658257,6.0705719-27.7580929,7.6374817c-1.7914476,0.0481415-3.581666-0.0353851-5.3696737-0.3336334 c-1.8268242-0.3041382-3.4762723-0.0024567-4.811996,1.3413849c-1.34162,1.3492279-1.1866003,2.5127411-0.4729204,3.7209625 c-0.064612,0.1208649-0.1068678,0.2387848-0.1127639,0.3468781c-0.0334115,0.6043549,0.3731772,0.732605,0.8753327,0.7340698 c0.5441656,0.7168732,1.1465557,1.3924866,1.7939038,2.0361481c0.0724735,1.3521729,0.4630935,2.7471161,0.9050591,4.1032257 c0.6082864,1.7943878,1.4170418,3.5720825,2.2837758,5.3394623c0.7834511,1.5963745,2.3749199,2.8950043,4.1585054,3.8167725 c5.7325335,2.9613342,11.1783648,6.350647,17.6331749,8.0172882c3.0293922,0.7812347,5.9440575,1.8685913,8.8157272,3.2050476 c2.5776024,1.1998596,5.4961967,2.1068878,8.3120995,2.5942993c19.5725174,3.370636,38.8752899,8.1391449,58.4249573,12.1839142 l7.4252167,1.4755096l3.7315292,0.7031097l0.467514,0.0859833l0.2338791,0.0427551l0.1056442,0.01474l0.3564682,0.0417633 l0.7298965,0.0864716l1.1443405,0.1346283c0.2437134-0.0393066,0.2653275,0.2186584,0.3584366,0.35672l0.23069,0.5006866 l0.4495773,1.0441132l0.226265,0.5493164l0.4707108,1.3143616c1.2504807,3.5165558,2.4670486,7.0729218,3.648735,10.6405792 c2.3626404,7.1387634,4.5862274,14.3389435,6.5997543,21.608902c0.47612,1.719223,1.1819305,3.4123993,1.4789581,5.1399689 c1.620697,9.4210663,3.9160309,18.7006226,6.4729919,27.9290771l0.7237549,2.5024414l0.9003906,3.046814l1.8312378,6.1241455 l3.7654266,12.2890625l1.934433,6.0813904c0.6539764,1.9899292,1.3096771,4.0059204,2.0221405,5.6534119 c0.7112122,1.6568298,1.4868011,2.8050842,2.2152252,3.8442993c0.7365265,1.0057678,1.4654388,1.5973511,2.1378479,2.1795959 c1.4428406,1.8951416,2.7532501,2.7996826,3.90448,3.1303711c0.6053467,0.1700134,1.0644989,0.2348633,1.8128204,0.2068481 c0.4228058-0.018158,0.8817139-0.0505981,1.3983765-0.1916199c1.0266571-0.2643433,2.2680511-0.979248,3.6376801-2.7962341 l0.5232849-0.7203369c0.1842499-0.2210999,0.3255157-0.5271912,0.5512848-0.666748 c0.4161682-0.368988,0.8384857-0.6367798,1.2487488-1.0912781l1.1846466-2.0710144 c0.3446655-0.9718933,0.6554413-2.1329346,0.9846497-3.1898193c2.0425262-9.1542664,4.1725159-17.7484131,6.380127-26.3115845 l5.6971588-21.7179718c1.6049805-6.0288086,3.2391968-12.0527191,4.9348297-18.0603943 c0.9824524-2.8576813,1.7607422-5.7934723,2.5117645-8.7405548c1.7197113-5.8249054,3.4873199-11.6380157,5.2836761-17.412323 l1.3539124-4.3164673l1.1689148-3.6398926l0.2572174-0.6918182c0.0228424-0.0565033,0.0447083-0.1134949,0.0729675-0.1675415 c0.0334015-0.0525818,0.1144714-0.0343933,0.1687775-0.0550385l0.3618774-0.0727234l2.4768677-0.5611115l4.9802856-1.1905365 c3.3077393-0.8180847,6.5936127-1.6813812,9.861557-2.5888977c6.5353851-1.815033,13.0002747-3.8054657,19.3973541-5.9880219 c10.7882385-3.6841125,21.8486786-6.6538086,32.6754913-10.2897797 C274.9615173,168.9088898,283.4824524,164.8690338,293.2103577,162.3975677z M251.6424866,156.6198273 c-18.0488586,7.6168518-36.9081879,13.5139771-55.6950378,18.6136627l-2.7952728,0.7365265l-4.4481506,1.0608215 c-0.4576874,0.1012115-0.8773041,0.2550049-1.302063,0.4004364l-0.6367798,0.2171783 c-0.1985168,0.0864716-0.3837433,0.18573-0.576355,0.2781067c-0.3763733,0.1906433-0.7824707,0.3606415-1.0959473,0.5915833 l-0.5009308,0.3247681l-0.2500916,0.1621552l-0.0314484,0.0201416c0.6478424,0.7488098,0.1705017,0.2147217,0.3110199,0.3852081 l-0.0159607,0.0122833l-0.063385,0.0496368l-0.1139984,0.1026917l-0.8721313,0.8338013l-0.4385223,0.4304199l-0.3749084,0.510025 c-0.456955,0.7227631-0.7468414,1.6052246-1.0568848,2.4601746c-0.2911224,0.8716431-0.5643005,1.7511444-0.8311005,2.6316376 l-0.7318726,2.4970245l-0.9082489,3.3401642l-3.5440826,13.2756805 c-2.3685303,8.8280029-4.8176422,17.6221161-7.530365,26.3548126c-0.530899,1.7093811-0.8512573,3.5209808-1.5329895,5.1419373 c-2.4613953,5.8558502-4.614975,11.831604-6.5737152,17.8825226c-0.772644,1.5728149-1.248764,2.7368164-1.6585388,3.8609924 c-0.4095459,1.1158447-0.7522583,2.2032166-1.0421448,2.786438l-0.0319366,0.0638733 c-0.0331726-0.0127869-0.0491486-0.1056519-0.0682983-0.15625l-0.098526-0.3562317l-0.1717224-0.6613464l-0.3061066-1.1477966 c-0.1953125-0.7026062-0.3837433-1.3059998-0.5822449-1.9019775l-0.619339-1.7934265l-0.3527832-1.0342865l-1.7300262-5.5050354 c-3.7605286-11.9559174-7.5195618-23.9069214-11.2808228-35.865799 c-0.7375031-2.9475708-1.6963654-5.8484802-2.6945343-8.7429962l-3.9828491-13.0825806l-1.0224915-3.2920227 l-0.8674774-2.6960144c-0.3252716-0.9851379-0.6507874-1.9717712-1.0018463-2.9411926 c-0.3530426-0.9669647-0.749054-1.9069061-1.2455597-2.7368011c-0.4031525-0.9247131-1.2797089-1.3497162-1.9791412-1.8852844 l-0.1397858-0.0982666l-0.0727234-0.0501251l-0.019165-0.0122833l-0.0095825-0.0058899 c-0.285965,0.3203583,0.3790741-0.4436951,0.3075867-0.3675385l-0.0336609-0.0240631l-0.2697449-0.1921234l-0.5392609-0.3842316 c-0.3326416-0.2741699-0.785408-0.4692383-1.1993713-0.6898499c-0.2117691-0.1066284-0.4169083-0.2201233-0.6343231-0.3208466 l-0.7144241-0.2388c-0.4773407-0.1572266-0.9428864-0.3321533-1.4607697-0.4318848l-5.4939804-1.1954498l-2.9596252-0.6819916 l-5.9361954-1.4013214l-11.9210358-2.8620911c-7.9669266-1.9088745-15.9692307-3.7813873-24.0265656-5.4932404 c-11.0203972-2.3437195-21.8707886-5.7010803-32.8039703-8.583313c-2.5817757-0.6829834-5.1984406-1.2868347-7.8313179-1.890213 c0.4748878-0.1169434,0.9497719-0.22258,1.4246597-0.3596649c3.0377464-0.8780365,6.1349449-1.4308014,9.3213234-1.7433014 c2.8596306-0.2810516,5.8681412-0.9841614,8.5742302-1.9938812c18.8057747-7.0291901,38.1134529-12.6197205,57.332943-18.5959625 l10.1040344-3.218811l3.8914566-1.253418c0.6697083-0.2166901,1.3199997-0.4574432,1.9658737-0.7011566 c0.6151657-0.2771149,1.296669-0.4844666,1.756073-0.9242172c0.2682724-0.1837616,0.4800491-0.4102783,0.6886215-0.6382599 l0.6259766-0.6603699l0.3056183-0.3272324l0.1520691-0.1685333l0.0741882-0.0938492l0.0186768-0.0240784l0.0046692-0.0058899 c0.8225098,0.7384872,0.2294617,0.2009583,0.4137115,0.3640823l0.0056458-0.0142441l0.0223541-0.0565109l0.3559875-0.9021072 l1.4106598-3.5902634l1.2826538-6.7255478l0.968689-4.8343506c0.6891174-3.2188034,1.3917389-6.4356461,2.1864929-9.6406937 c1.545517-6.4150162,3.3583374-12.7946472,5.3438721-19.1349792c0.5446625-1.7162704,0.8827057-3.5371933,1.5811462-5.1620789 c2.9485779-6.8149643,5.5519714-13.7871628,7.9349976-20.8817062l0.8812256-2.6675186l0.4346008-1.3364601l0.2156982-0.6687202 l0.0749207-0.1763954l0.4940491-1.1787376c0.2987518-0.7473373,0.5554657-1.4381676,0.7849274-2.0842896 c0.2790833-0.7694473,0.526474-1.4784584,0.7488098-1.9530983l0.1363525-0.3129883l0.0641174-0.1616516l0.0312042-0.0830383 l0.0162201-0.041275c0.0189056-0.0083504,0.0331573,0.033905,0.0444641,0.0530663 c0.165329,0.4068336,0.2751465,0.7925415,0.3952789,1.1438522c0.2314301,0.705574,0.4419708,1.3118935,0.6601257,1.9088821 l0.6674957,1.7953758l0.3410034,0.9379807l1.396637,4.249649c3.8796692,11.9942436,7.7207642,24.0086327,11.1569977,36.0996742 c0.6665039,2.9682236,1.5366821,5.8951645,2.4211121,8.8181839c0.908493,3.4639893,1.7796478,6.9309235,2.6046143,10.392952 l1.2010956,5.1871338l0.6500549,2.9461136l0.5087891,2.3614044l0.5026398,2.4547653 c0.2292175,1.0446014,0.5694733,2.029747,0.9930115,2.906311c0.2385559,0.4048691,0.4319,0.8849182,0.7080383,1.228363 l0.3974915,0.5429382l0.1990051,0.271225l0.0498657,0.0678024c1.1327972-1.016098,0.3218384-0.2712173,0.578064-0.493309 l0.0137634,0.0181808l0.0270233,0.03685l0.1071167,0.1390533l0.8532104,1.0686722 c0.3056183,0.3577042,0.5552216,0.7679749,0.9605865,1.0534515c0.1928558,0.1488724,0.3564758,0.3292007,0.57341,0.4525299 l0.7026215,0.3154373c0.4559631,0.2245483,0.968689,0.3837433,1.4624939,0.5650482 c0.9959564,0.3513184,2.0233612,0.6643066,3.0492859,0.9728699l2.8869019,0.8515015l3.4288635,0.9777832 c4.5574799,1.2794647,9.0965271,2.4881744,13.6490936,3.6462708c9.1019287,2.3132629,18.2404785,4.4108124,27.4527283,6.2003021 c11.2923431,2.1923828,22.4606476,5.2406921,33.7488251,7.6561432c3.4082031,0.7281799,6.8579712,1.3128815,10.3398743,1.9118347 c-3.6796875,0.4923248-7.3598633,1.119278-10.9972839,2.4149628c-2.9036255,1.0332947-5.8954163,1.7310028-8.9879456,2.1781311 C257.1384277,154.704071,254.2389984,155.5202026,251.6424866,156.6198273z" fill="inherit"/></g></g></g></g></svg>