<?xml version="1.0" encoding="UTF-8" standalone="no"?><svg xmlns="http://www.w3.org/2000/svg" xmlns:xlink="http://www.w3.org/1999/xlink" fill="#2b2b2b" height="480" preserveAspectRatio="xMidYMid meet" version="1" viewBox="24.0 16.0 464.0 480.0" width="464" zoomAndPan="magnify"><g id="change1_1"><path d="M256,296c4.4,0,8-3.6,8-8v-24h8c13.2,0,24-10.8,24-24s-10.8-24-24-24h-16c-4.4,0-8,3.6-8,8v64C248,292.4,251.6,296,256,296z M264,232h8c4.4,0,8,3.6,8,8s-3.6,8-8,8h-8V232z" fill="inherit"/></g><g id="change1_2"><path d="M320,296c4.4,0,8-3.6,8-8v-64c0-4.4-3.6-8-8-8c-4.4,0-8,3.6-8,8v64C312,292.4,315.6,296,320,296z" fill="inherit"/></g><g id="change1_3"><path d="M192,296c4.4,0,8-3.6,8-8v-24h16v24c0,4.4,3.6,8,8,8c4.4,0,8-3.6,8-8v-48c0-13.2-10.8-24-24-24s-24,10.8-24,24v48 C184,292.4,187.6,296,192,296z M200,240c0-4.4,3.6-8,8-8c4.4,0,8,3.6,8,8v8h-16V240z" fill="inherit"/></g><g id="change1_4"><path d="M256,376c66.2,0,120-53.8,120-120s-53.8-120-120-120s-120,53.8-120,120S189.8,376,256,376z M256,152 c57.3,0,104,46.7,104,104s-46.7,104-104,104s-104-46.7-104-104S198.7,152,256,152z" fill="inherit"/></g><g id="change1_5"><path d="M48,432c13.2,0,24-10.8,24-24c0-10.4-6.7-19.3-16-22.6v-21.5l60.2-48.2c3.6,8.3,7.9,16.4,12.9,23.9l-14.7,14.7 c-3.1,3.1-3.1,8.2,0,11.3l32,32c3.1,3.1,8.2,3.1,11.3,0l14.7-14.7c15.7,10.3,33.3,17.7,51.6,21.7V432c0,4.4,3.6,8,8,8h48 c4.4,0,8-3.6,8-8v-27.4c6.7-1.4,13.3-3.3,19.7-5.7l12.4,74.4c0.6,3.9,4,6.7,7.9,6.7h25.4c3.3,9.3,12.2,16,22.6,16 c13.2,0,24-10.8,24-24s-10.8-24-24-24c-10.4,0-19.3,6.7-22.6,16h-18.6l-11.9-71.5c5.8-2.8,11.4-6,16.8-9.6l14.7,14.7 c3.1,3.1,8.2,3.1,11.3,0l32-32c3.1-3.1,3.1-8.2,0-11.3l-14.7-14.7c0.8-1.2,1.6-2.4,2.3-3.6h56.1c3.3,9.3,12.2,16,22.6,16 c13.2,0,24-10.8,24-24s-10.8-24-24-24c-10.4,0-19.3,6.7-22.6,16h-47.5c4.8-10.2,8.4-21,10.8-32H432c4.4,0,8-3.6,8-8v-48 c0-4.4-3.6-8-8-8h-27.4c-3.9-18.3-11.3-35.9-21.7-51.6l14.7-14.7c3.1-3.1,3.1-8.2,0-11.3l-32-32c-3.1-3.1-8.2-3.1-11.3,0l-14.7,14.7 c-5.4-3.5-11-6.7-16.7-9.6L364.6,48h28.8c3.3,9.3,12.2,16,22.6,16c13.2,0,24-10.8,24-24s-10.8-24-24-24c-10.4,0-19.3,6.7-22.6,16 H360c-2.8,0-5.5,1.5-6.9,4l-45,77.2c-6.5-2.4-13.2-4.3-20-5.8V80c0-4.4-3.6-8-8-8h-48c-4.4,0-8,3.6-8,8v27.4 c-18.3,3.9-35.9,11.3-51.6,21.7l-14.7-14.7c-3.1-3.1-8.2-3.1-11.3,0L135,125.7l-39-26V62.6c9.3-3.3,16-12.2,16-22.6 c0-13.2-10.8-24-24-24S64,26.8,64,40c0,10.4,6.7,19.3,16,22.6V104c0,2.7,1.3,5.2,3.6,6.7l39.9,26.6l-9.1,9.1 c-3.1,3.1-3.1,8.2,0,11.3l14.7,14.7c-10.3,15.7-17.7,33.3-21.7,51.6H80c-4.4,0-8,3.6-8,8v48c0,4.4,3.6,8,8,8h27.4 c0.9,4,1.9,7.9,3.1,11.8l-67.4,54c-1.9,1.5-3,3.8-3,6.2v25.4c-9.3,3.3-16,12.2-16,22.6C24,421.2,34.8,432,48,432z M376,464 c4.4,0,8,3.6,8,8s-3.6,8-8,8c-4.4,0-8-3.6-8-8S371.6,464,376,464z M464,320c4.4,0,8,3.6,8,8s-3.6,8-8,8c-4.4,0-8-3.6-8-8 S459.6,320,464,320z M416,32c4.4,0,8,3.6,8,8s-3.6,8-8,8c-4.4,0-8-3.6-8-8S411.6,32,416,32z M88,48c-4.4,0-8-3.6-8-8s3.6-8,8-8 c4.4,0,8,3.6,8,8S92.4,48,88,48z M88,272v-32h26c3.9,0,7.2-2.8,7.9-6.7c3.4-20.5,11.8-40.3,24-57.2c2.3-3.2,2-7.6-0.8-10.4 L131.3,152l20.7-20.7l13.8,13.8c2.8,2.8,7.2,3.1,10.4,0.8c16.9-12.3,36.7-20.6,57.2-24c3.9-0.6,6.7-4,6.7-7.9V88h32v26 c0,3.9,2.8,7.2,6.7,7.9c20.5,3.4,40.3,11.8,57.2,24c3.2,2.3,7.6,2,10.4-0.8l13.8-13.8l20.7,20.7l-13.8,13.8 c-2.8,2.8-3.1,7.2-0.8,10.4c12.3,16.9,20.6,36.7,24,57.2c0.6,3.9,4,6.7,7.9,6.7h26v32h-26c-3.9,0-7.2,2.8-7.9,6.7 c-3.4,20.5-11.8,40.3-24,57.2c-2.3,3.2-2,7.6,0.8,10.4l13.8,13.8L360,380.7l-13.8-13.8c-2.8-2.8-7.2-3.1-10.4-0.8 c-16.9,12.3-36.7,20.6-57.2,24c-3.9,0.6-6.7,4-6.7,7.9v26h-32v-26c0-3.9-2.8-7.2-6.7-7.9c-20.5-3.4-40.3-11.7-57.2-24 c-3.2-2.3-7.6-2-10.4,0.8L152,380.7L131.3,360l13.8-13.8c2.8-2.8,3.1-7.2,0.8-10.4c-12.3-16.9-20.6-36.7-24-57.2 c-0.6-3.9-4-6.7-7.9-6.7H88z M48,400c4.4,0,8,3.6,8,8s-3.6,8-8,8c-4.4,0-8-3.6-8-8S43.6,400,48,400z" fill="inherit"/></g></svg>