<?xml version="1.0" encoding="UTF-8" standalone="no"?><svg xmlns="http://www.w3.org/2000/svg" xmlns:xlink="http://www.w3.org/1999/xlink" fill="#000000" height="506.4" preserveAspectRatio="xMidYMid meet" version="1" viewBox="-0.3 -6.4 381.4 506.4" width="381.4" zoomAndPan="magnify"><g id="Layer_2"><g><g><g id="change1_1"><path d="M163.7267151,491.7247009c-23.8416748-3.9654846-123.7106171-20.8721313-149.2797852-30.0036316 c0,0-6.8460116-1.5409546-6.6845012-17.8171387c-1.870121-27.4095459,8.8148327-76.0477905,26.2244301-73.194458 c7.9121208,1.2963562,121.9271545,50.0823975,146.3617554,60.5617065 C182.9854126,432.4022217,166.6450043,492.2097168,163.7267151,491.7247009z M240.379715,335.7311401 c-9.3208618-50.1300964-105.0427094-165.0140686-114.6266022-191.9655304 c-26.7800369-42.2916565-53.521347-5.4531097-72.3018951,13.5087891l-9.1713829,7.8478851 C4.6557064,196.1799927,158.3135223,334.5311584,173.8664551,367.3314514 c25.6737823,33.073761,46.9645844,1.4078064,61.2204742-11.0355835c0,0,0.0479431-0.0316467,0.1272736-0.0916138 c5.5995026-3.8125,6.9300842-10.9827271,5.1655121-20.4726563V335.7311401z M371.277771,59.0406303 c0.8677673-53.4221725-74.7890015-65.4561157-103.2467346-32.6232147l-0.0054321-0.0160561 c-6.0989075,5.8091793-7.6693726,12.8712482-7.6693726,12.8712482 c-4.5692749,12.1378403,8.0370483,155.546814,12.9451599,209.1092529l1.8623352,20.0107727 c5.0589905,60.1508179,56.8157654,57.0481262,77.4860535,56.6537781c0,0,0.1749573,0.0089722,0.4793091-0.042511 c1.1298828-0.1454468,2.1945801-0.7305603,3.1976318-1.7156677c2.4200745-2.1638794,5.459259-6.9865112,7.2462463-17.7510376 C376.4076233,248.5495148,370.8610229,84.7052078,371.277771,59.0406303z" fill="#8f9091"/></g><g id="change2_1"><path d="M380.4439697,82.7401657l-0.2743835-16.6294403l-0.0389709-4.1015129l-0.0011597-2.0103798l0.0037537-1.0195923 l-0.0134583-1.2118034c-0.0144043-3.225956-0.2887573-6.493-0.855957-9.7411537 c-0.3839417-3.1669273-1.214386-6.3281898-2.4160461-9.3558006c-2.2670288-6.4353867-5.8155518-12.4731388-10.3040771-17.5706348 c-4.4771729-5.1225252-9.852356-9.2778769-15.5935364-12.4844732 c-11.5234375-6.4127192-24.4841919-9.1158943-37.0933228-8.5397453 c-5.5704651,0.2658783-11.1215515,0.8807514-16.6100769,2.0439098 c-5.4746094,1.1933827-10.9021912,2.9156885-15.9817505,5.5102448 c-4.1565247,2.0868845-7.9770508,4.9071779-11.5298157,8.0939398c-3.5326843,3.2330408-6.8068237,6.8278303-9.9442139,10.8136415 c-0.6547852,0.6323471-1.309082,1.2646942-1.9674072,1.9012909c-0.1636353,0.1478138-0.3251648,0.2979908-0.4871216,0.4472237 c-0.5065002,0.3589115-0.9827576,0.7957458-1.4188995,1.2873592c-0.051712,0.0458088-0.1005859,0.0925617-0.152771,0.1378994 c-0.7402496,0.6219559-1.3010559,1.3511143-1.6531219,2.161972c-0.0779114,0.1756783-0.1421509,0.3560791-0.2006989,0.5388412 c-0.1756897,0.2781563-0.3527832,0.552536-0.5256195,0.8373032c-0.2906799,0.4911423-0.5773315,0.9969254-0.8535919,1.5277367 l-0.4113464,0.8382492c-0.1445007,0.3362427-0.2507629,0.5067291-0.4446259,1.1263237l0.3579712-1.2018852 c-0.3352966,0.7669411-0.6462708,1.5645752-0.9237213,2.3801537l-0.2016602,0.6148758l-0.1251373,0.4188881l-0.2271576,0.7981071 c-0.148056,0.5350609-0.2892609,1.0757904-0.4221954,1.6217155c-0.1218414,0.5204201-0.1999969,0.9511147-0.2913818,1.4361191 c-0.3735504,1.9437943-0.510025,3.7241859-0.4753113,5.58675c0.0944366,2.6134453-0.1091003,5.1739998-0.5088654,7.7246399 c-0.3846436,2.312149-0.3407288,4.7659721,0.0184174,7.0568695c2.6469879,15.7883568,4.2006989,31.4756432,5.9489746,47.1648216 c1.7929077,15.8842239,3.8984375,31.7377548,4.5791931,47.7253952c0.0609131,1.4195862,0.3404846,2.8566589,0.2337646,4.2535706 c-1.1662292,15.2391357,0.3771057,30.4574738,1.2110901,45.6578674 c0.6698914,12.2398529,2.0165405,24.4428558,3.1447449,36.6586151l1.458313,14.8712463l0.7404785,7.4266357l0.1872559,1.8753357 l0.2292786,2.010376c0.1617432,1.3421326,0.2852478,2.6767273,0.4783936,4.0245361 c0.295166,2.6431885,0.7156982,5.2778931,1.4854736,7.8951111c1.2554932,5.5258484,2.9810791,11.0922852,5.6332703,16.4098511 c2.614624,5.3142395,6.066803,10.3834229,10.3191833,14.7385254c4.2370605,4.370697,9.2771606,7.9234619,14.5921326,10.5609741 c5.3251343,2.6384888,10.9232178,4.3943176,16.4910889,5.3742371c9.8112793,1.7194824,19.5092163,2.5138245,28.8702087,2.1109924 c1.1065063-0.0458069,2.2047119-0.1209106,3.2946777-0.2167664c1.2741394-0.1166687,2.5522766-0.2333069,3.8351746-0.3504333 c1.0519409-0.1440125,2.1177979-0.2200623,3.1369324-0.41745c1.010376-0.2602234,1.9886475-0.6928101,2.8953857-1.2212524 c1.8195801-1.0701294,3.3692627-2.5426025,4.7012634-4.1945496c0.5846558-0.79953,1.1759033-1.603302,1.6920776-2.4542847 c1.2099304-0.782074,2.2843018-1.9683533,3.065155-3.2476807c1.787262-2.9119263,3.3069458-5.6949158,4.5770874-8.5600586 c1.2533569-2.857605,2.2266541-5.7850952,2.682373-8.8717346c0.4234009-2.8953857,1.0861816-5.6882935,1.9532471-8.4741211 c0.7792358-2.4996338,1.1955261-5.2712708,1.2044983-7.8752747c0.0271301-9.0441284,0.1071777-17.9484558,0.2292786-26.8390808 c0.112854-8.8849487,0.2476807-17.7411041,0.2519226-26.5741272c0.0028381-17.9106598-0.562439-35.7825928,0.1853638-53.6606598 c0.0658875-1.5877075-0.0875854-3.2155609,0.1412048-4.7617188c2.4979858-16.8707581,2.1763916-33.9818878,2.508606-50.9905472 C381.1027527,110.1298752,380.6517639,96.413765,380.4439697,82.7401657z M349.8247375,315.0596924l-0.0195923,0.0132141 c-0.0219421,0.0127563-0.0453186,0.0193787-0.0701294,0.0250549l-0.8464966,0.015564 c-0.5915222,0.0028381-1.1641235-0.0169983-1.7402649-0.0524292c-1.1598511-0.0661011-2.2887573-0.2191162-3.4283142-0.423584 c-2.1019897-0.4033203-4.3487549-0.4628296-6.4197998-0.2498474c-7.2101135,0.7844238-14.3749084,0.5402832-21.1125488-0.9874573 c-6.7470703-1.50177-12.920105-4.4202881-18.1123047-8.5917053c-2.656189-2.0930176-4.9891052-4.5997314-7.0526123-7.373291 c-1.0842896-1.3492126-1.9409485-2.8830872-2.8883057-4.3617249c-0.7858276-1.5848694-1.6989136-3.1064758-2.3369446-4.7957153 c-1.4795532-3.2675171-2.4332581-6.8302002-3.2698669-10.4145813c-0.31073-1.8328247-0.660675-3.6486206-0.8734436-5.5116577 l-0.252655-2.8155823c-0.0805054-0.9341125-0.1572571-1.8644409-0.208252-2.8868713 c-0.0800476-1.4186707-0.3806458-2.8519592-0.291626-4.2498169c0.9582214-15.2631989-0.6833496-30.4031525-1.5324402-45.5804138 c-0.6819458-12.2115021-1.986084-24.3932648-3.0151062-36.5858917 c-0.8366089-9.9196625-1.7785034-19.8256378-2.5489807-29.7495575c-0.0224304-2.4108429-0.2640076-4.821228-0.5336609-7.2320709 c-1.3513489-20.2813721-2.1817932-40.5939102-4.7527466-60.7227325 c-1.1218262-8.8835449-1.313324-17.897438-1.7662354-26.7186432c-0.1770935-2.6389503-0.3551331-5.2906494-0.5348206-7.968792 c-0.0968018-1.3430901-0.118042-2.5855865-0.1253662-3.8493347c-0.0094604-0.3367157,0.0092163-0.5978699,0.0254822-0.8651657 l0.047699-0.8141632l0.0252686-0.4094429l0.0299988-0.1468697c0.0068359-0.0429764,0.0099182-0.087368,0.0099182-0.1331787 l-0.0007019-0.0344734l-0.000946-0.0174713l-0.0004883-0.0089722l-0.0002441-0.0047226l-0.0002136-0.0018921l-0.0621033-0.023613 c-0.6800537-0.2554855-1.3537292-0.5331726-2.0202942-0.8325806l2.3253784-0.0665855 c0.0108337-0.047226,0.0519409-0.2096825,0.0779114-0.299881c0.051239-0.1648178,0.094696-0.323967,0.1586609-0.5001183 c0.1152344-0.3414383,0.2545471-0.6975174,0.4118042-1.0474548c0.3074341-0.7046013,0.694458-1.3992844,1.1381531-2.0552444 c0.8044739-0.7999954,1.7558289-1.4526482,2.8575745-1.8384781c0.8692017-0.3187714,1.4160767-0.7537155,1.5759277-1.5560722 c1.5419006-1.2561951,3.2037659-2.3187618,4.863739-3.3189945c1.9501648-1.1744919,3.8859253-2.2890091,5.7815247-3.6911259 c1.78302-1.3204193,3.8661194-2.241312,6.1116638-2.7598457c2.0137024-0.4694195,4.0722351-1.199522,5.9744873-2.1152191 c6.6294861-3.1763725,14.4081726-4.687109,22.18927-4.6498013c7.7940369,0.063755,15.6386414,1.6731911,22.7486267,4.7239437 c7.1886292,3.0960903,13.6771545,7.7756424,18.1493835,14.02071c4.5005798,6.2054024,6.8226318,13.9446793,6.5891113,21.8719139 c-0.0245667,1.3005829,0.1036682,3.0965614-0.111908,4.6488571c-1.1799316,8.5439949-1.5577393,17.003933-1.7386169,25.5063667 c-0.1721191,8.4934692-0.1095581,16.9902344-0.2571411,25.4662323 c-0.2366028,13.6466827,0.1209106,27.3065948,0.1456909,40.9499817 c0.0198364,11.09935,0.1074524,22.1902008-0.0328064,33.2791748c-0.1959839,2.6781464-0.1834717,5.3756561-0.1409912,8.0769348 c-0.5789795,22.6369629-1.8797913,45.2068634-2.0649109,67.7021484 c-0.1001282,9.9333801-1.2755432,19.8501892-2.4016418,29.5682068 c-0.4715576,3.9588928-0.7700195,7.9494324-1.3898315,11.8809509c-0.3270569,2.0779114-0.7558594,4.1827393-1.3513489,6.171875 c-0.1981201,0.1355286-0.3997803,0.2672729-0.5797119,0.4169922c-0.5341187,0.4330444-0.9265442,1.0073242-1.3050537,1.4979858 l-0.8843079,1.1966858l-0.9315186,0.9808655c-0.1461487,0.1780396-0.311676,0.2668152-0.4611511,0.3962097 c-0.0365906,0.0274048-0.0791016,0.0661316-0.1100159,0.0840759l-0.0682678,0.011322l-0.121582,0.0245667 c-0.1707153,0.0165405-0.3320007,0.011322-0.4713135-0.0028381 C350.2322998,315.2056274,349.9916992,314.9397278,349.8247375,315.0596924z M248.6058807,325.1951904 c-0.2965698-2.3272705-1.0606842-4.7036438-2.1506348-6.7107239c-1.8859406-3.4984436-3.7808685-6.8825989-5.7090759-10.1902771 c-1.9081268-3.325592-3.8483734-6.5742188-5.7827301-9.8077393c-3.8875885-6.4471741-7.8136597-12.7819824-11.8783417-18.982666 c-8.2613525-12.5571899-17.1186829-24.5750885-24.9186401-37.3013458 c-0.6906738-1.1319885-1.5884247-2.161972-2.1275024-3.3548889 c-5.8896942-13.0129242-14.2504578-24.5713043-21.9470062-36.4338226 c-6.1947632-9.5536804-12.9484558-18.7219849-19.3484192-28.0400085 c-5.1862793-7.5754089-10.442688-15.1186981-15.0320435-22.7299957c-0.951828-1.9163971-2.0713043-3.7336273-3.103653-5.4960785 c-0.512146-0.960556-0.9440308-1.8814545-1.3841705-2.8018799l-0.5648041-1.3109741l-0.8580933-2.2299652 c-0.2023621-0.4949188-0.5806274-0.9270325-0.8139191-1.3213654l-0.6824036-1.0314026l-1.0909119-1.6495819l-1.0953827-1.6476898 l-1.2328186-1.6155701c-3.1962128-4.3064728-7.1144867-8.531723-12.3066711-11.9456329 c-0.6014175-0.4533691-1.3140488-0.8297501-2.0169907-1.2089691l-2.1147537-1.1192398l-0.5317535-0.2724915l-0.576149-0.2257385 l-1.1572571-0.4415512c-0.7733078-0.2894897-1.5496979-0.5700073-2.3279648-0.8387222 c-0.8184128-0.197876-1.6408463-0.3844147-2.4646912-0.5591507c-0.8259659-0.1662292-1.6408386-0.3740234-2.4894791-0.4099121 c-1.683815-0.1360092-3.3747177-0.2942123-5.0257111-0.1185379c-0.8255005,0.0642319-1.6665802,0.096344-2.4715347,0.2177124 l-2.3770828,0.4651642l-1.1806335,0.2521896l-1.1142807,0.3513565l-2.2113266,0.7348251 c-1.4032974,0.5648117-2.7718811,1.182518-4.0771942,1.8469772l-1.8755493,1.0687103 c-0.6302185,0.353241-1.2377701,0.7230148-1.7981033,1.1258469c-4.1130829,2.737175-7.7295914,5.6646729-11.1175385,8.6757507 c-3.3825073,3.014389-6.4932365,6.1359863-9.3796463,9.3473053c-2.3489838,2.6200562-4.4443703,5.4313812-6.6209831,8.1439972 c-2.1749573,2.7003326-4.4703445,5.3435364-7.1723366,7.4365692c-1.104126,0.5945587-2.2585487,0.9733124-3.4802666,1.1655121 c-0.6238441,0.0944519-1.1109734,0.2120361-1.4736633,0.5364838c-0.1770973,0.1487579-0.3345909,0.3735504-0.4323502,0.5818176 c-0.0417938,0.0892487-0.074379,0.1926727-0.1041298,0.3008118l-1.2956276,0.6800537 c-0.2828789,0.1515961-0.4951553,0.2375336-0.8365936,0.4410858l-1.0727234,0.6644592l-1.0753174,0.6894836 c-0.3593864,0.2139282-0.7156982,0.4963379-1.0698891,0.8080292c-0.7064896,0.6035309-1.4191208,1.2264404-2.0965652,1.8960876 c-2.6500473,2.7848816-4.5400028,6.471756-5.1534595,10.2129364c-0.6259708,3.5395355-0.7910233,6.7433014-0.9973965,9.9158936 c-0.0297527,0.7003479-0.0314064,1.4181824-0.0056686,2.1430817c0.0191269,0.7315216,0.1376629,1.3959808,0.2410851,2.0972748 c0.1178284,0.6866608,0.2399044,1.3936157,0.4229031,2.0448608c0.189373,0.6441498,0.4007072,1.2764893,0.6318741,1.8885345 c3.3029366,8.3947601,7.4235783,15.2797394,11.6240292,21.9998932c4.2453156,6.6554565,8.6726837,12.9945068,13.31493,19.0908203 c9.4079819,12.3673553,19.6331978,23.8015289,28.9441338,35.9875336 c0.8250275,1.0847778,1.8469772,2.0462646,2.5307999,3.2023621c7.456871,12.6304016,17.3104248,23.4869995,26.5741348,34.6666565 c7.4615936,9.0053711,15.4587173,17.534729,23.1701355,26.2303162 c6.2592316,7.0757751,12.5827026,14.0759583,18.474762,21.2485352c1.2911377,1.8370667,2.7374115,3.5499268,4.1763611,5.2495728 c1.400238,1.849823,2.7933807,3.7104797,4.0495758,5.5527344c1.2628021,1.833313,2.4772034,3.693512,3.3721161,5.3600769 c0.1249084,0.2153625,0.2394409,0.4236145,0.3225555,0.6092224l0.6056519,1.1938477l0.3771057,0.7438049 c0.1478119,0.2332764,0.3412018,0.4368286,0.5097961,0.6568909l0.9204102,1.1409607 c0.8755646,1.0724792,1.6984558,2.1577148,2.6897278,3.1938477c0.957016,1.0455627,1.8908997,2.0953979,2.9879303,3.0880737 l1.5962219,1.4989319l1.7537079,1.4285583c1.1300964,0.9667053,2.4819183,1.8205261,3.7747192,2.6852112 c0.6491089,0.4316406,1.3983307,0.798584,2.0982208,1.1905518c0.708374,0.3872681,1.4184113,0.7688293,2.2077789,1.0791016 c2.9945526,1.3865356,6.4630127,2.2554932,9.9425659,2.4967957c3.4887695,0.2436829,7.0049286-0.1865234,10.1557922-1.1371765 c3.1513519-0.9577332,5.96315-2.3466187,8.471283-3.9173279c4.4278412-2.7896118,8.1177826-5.8894653,11.5687714-9.0091858 c3.4120178-3.1338501,6.5390472-6.3371582,9.4271088-9.4729004c1.8332825-1.9839478,3.5175781-4.0264282,5.1943054-5.8209839 l-0.1796875,0.1355286l0.3437958-0.2937317l0.5605621-0.5374451c0.3192444-0.3414307,0.6512451-0.6894836,0.9180603-1.0271301 c0.5617523-0.6786499,1.0252686-1.3582153,1.4665833-2.042511c0.5319977-0.8632813,0.9860687-1.7341003,1.3903046-2.6068115 c1.5386047-0.6115723,2.9718933-2.1752014,3.7676392-3.9806213c1.3891296-3.1206665,2.2864075-6.2668152,2.6797943-9.2939453 c0.3563232-2.9950256,0.3284607-6.0009155-0.4021149-8.7635803 C249.4167328,330.3196106,248.9237061,327.8024902,248.6058807,325.1951904z M226.8905182,350.1603394 c-1.8462677,1.8862-3.6918335,3.4639893-5.6932373,4.8325806c-1.79599,1.2330322-3.3976288,2.7820435-4.6283112,4.3990173 c-2.1395416,2.8179321-4.3329315,5.4228821-6.6330261,7.6354065c-2.2925568,2.2110596-4.6958466,4.1019592-7.0726929,5.2981873 c-1.1933899,0.6616211-2.359375,1.0351868-3.5208893,1.3822937c-0.5707092,0.0892334-1.1551208,0.2866516-1.7223053,0.2984619 c-0.2852325,0.0207825-0.5744934,0.0774536-0.861618,0.0854797l-0.8616333-0.0108643 c-2.2996368-0.005188-4.7496796-0.8798218-7.2488403-2.3069763c-2.5291443-1.4639587-5.0356293-3.5565186-7.3966522-5.9541626 l-1.64534-1.8025818c-0.1822815-0.1770935-0.3062439-0.2852173-0.4033051-0.4613953l-0.0852356-0.1359863l-0.1286926-0.2191467 c-0.1416779-0.2441406-0.2795715-0.5152283-0.4247894-0.7362366c-1.1475677-1.866333-2.3204041-3.5895996-3.5189819-5.2127075 c-2.3889008-3.2689514-4.8339844-6.3140259-7.2639618-9.3515625c-2.4323425-3.0290222-4.8464966-6.0401001-7.2202759-9.0672607 c-0.8396606-1.0819092-1.8774414-2.0287781-2.5730591-3.1843872 c-7.6368103-12.5557861-17.6041718-23.2296448-26.8489838-34.3540344 c-7.4528656-8.9539185-15.3557739-17.4945984-22.9481812-26.2615051 c-6.1711655-7.1333618-12.3605118-14.2270813-18.2842102-21.5096893 c-1.3147507-1.8573608-2.7709427-3.6089478-4.2736511-5.3326721 c-5.8885193-7.5404663-11.5156479-15.2414856-16.9557648-22.9623413 c-5.3971367-7.7359772-10.6941605-15.4658051-15.5243607-23.2206726 c-2.1237221-3.4228821-3.8885307-7.0205078-5.2526321-10.6176605c-1.3624496-3.5919495-2.3100243-7.1933441-2.7296181-10.4646454 c-0.3175926-2.6578369-0.3733177-5.0346832,0.2840576-7.083313c0.284771-1.055954,0.8913765-1.9456787,1.6158142-2.8306885 l0.7237282-0.6389618c0.2439156-0.2129822,0.4502907-0.401413,0.8637505-0.7286835 c0.729393-0.5846405,1.4793282-1.1537018,2.2547684-1.7038879c1.2339973-0.6011658,2.5289154-1.0989227,3.9279633-1.4257202 c1.2290382-0.2866669,2.1541786-0.9133453,2.5744858-2.0637512c4.1048203-2.5945587,8.1336098-4.9109497,11.1215477-8.439621 c1.4661102-1.7393188,3.1381226-3.2212372,4.9959641-4.4779053c1.6670532-1.1423798,3.185585-2.5870056,4.368576-4.1397705 c2.0507584-2.719696,4.2304382-5.1933594,6.5236969-7.3940582c2.2899551-2.1869965,4.7031631-4.1170959,7.1470718-5.4974976 c2.4453278-1.3751984,4.8743591-2.2233582,7.2110672-2.4410706c2.337883-0.2247925,4.6660919,0.1766205,7.0880356,1.2203064 l0.9208984,0.4155731l0.4670563,0.2021332l0.453125,0.2833405l1.8417892,1.1258545 c0.6011734,0.4410858,1.1914902,0.9336395,1.7971573,1.3950348c0.3001175,0.2384949,0.6091995,0.4585571,0.9060135,0.7107391 l0.8609161,0.8302155l1.7381287,1.6604462l1.633522,1.8720093c1.1263199,1.2047119,2.1116791,2.6139221,3.1246567,3.9881744 c0.5513535,0.7612762,0.6812286,0.8255005,0.8713074,1.3265533l0.2850037,0.6701355l0.3376617,0.7131042l0.6779175,1.4148712 c0.9244385,1.813446,1.8630371,3.5617218,2.8247833,5.2415314c1.9138031,3.3794403,3.8564148,6.6375122,5.7548676,9.9130554 c0.6783905,1.1570129,1.5532379,2.2299805,2.0833435,3.4361115c5.7692719,13.2192993,14.1973419,24.7417908,21.8792419,36.609024 c6.1994934,9.5513153,12.9300385,18.719635,19.3715668,28.0522919 c5.2375183,7.5933533,10.5291138,15.1300201,15.5930786,22.8022461c1.0932617,1.9414215,2.3565369,3.7836761,3.6538086,5.6089325 c10.0502472,15.8370056,19.3694458,32.0093079,28.8943176,47.7069702 c4.1789551,6.9463806,7.2741089,14.4754944,9.8041992,21.7193909c1.0203094,2.9482727,2.1364746,5.8620605,2.7336426,8.7565002 c0.1426086,0.644165,0.2488708,1.292572,0.3244324,1.9343567c-0.400238,0.3031921-0.7600861,0.6285706-1.0373077,0.9869995 c-0.3735504,0.5053101-0.7331696,0.991272-0.9334106,1.5187683c-0.6498108,1.4281006-1.5317383,2.6011658-2.362442,3.3553467 c-0.3518219,0.3598633-0.7121582,0.5780334-0.9917297,0.7593994c-0.0427399-0.0590515-0.0805206-0.1105042-0.1242065-0.1705017 l-0.7865295,0.5936279C227.9285278,349.1714478,227.3981934,349.6540833,226.8905182,350.1603394z M232.3811646,352.4134827 c0.0552521,0.0722351,0.1130981,0.1421204,0.1674194,0.2148743c0.1962128,0.2625732,0.3872375,0.5293884,0.5730743,0.8009338 C231.7218933,351.5072021,235.1308594,356.1896057,232.3811646,352.4134827z M186.811615,429.2286682 c-0.1598663-0.3948059-0.3374329-0.7853394-0.5962219-1.1730652c-0.2873688-0.3537292-0.5508881-0.5657654-0.9858246-0.8075562 c-0.7785187-0.4675293-1.5589142-0.9364624-2.3419037-1.4068298l-1.1482849-0.7145386 c-0.2025909-0.111908-0.351593-0.2583008-0.5962219-0.3447266l-0.6982269-0.2833557 c-0.6422577-0.2639771-1.2755432-0.5497131-1.9102631-0.8325806c-0.2866516-0.9416809-0.8330536-1.6930237-1.4970398-2.2394104 c-2.7851105-2.2923279-5.2882843-5.061615-8.7449341-6.2417908c-1.6226654-0.5539246-3.1100159-1.3997498-4.5135651-2.4812012 c-1.2597198-0.9709473-2.7820282-1.6651611-4.3336182-1.9900818 c-10.7848358-2.2554626-21.0537415-5.9848633-31.3514404-9.5659485 c-10.440567-3.6287842-20.9732208-7.078125-30.9531021-11.8927307c-0.8866501-0.4269104-1.8795624-0.6616211-2.6788483-1.2325745 c-8.7215652-6.2280884-18.6025085-10.0448303-28.1972656-14.4840088 c-3.863266-1.7874756-7.8013802-3.4172058-11.7841263-4.9836731c-3.9874649-1.5688171-7.9874458-3.0672913-12.1487007-4.5879517 l-2.6278496-0.9208679l-1.7834625-0.5676575c-0.7610359-0.2214966-1.5208893-0.3773193-2.2873535-0.5345764 c-1.5345879-0.2796021-3.1041183-0.3338928-4.6547604-0.2111206c-1.5454483,0.1770935-3.0807419,0.4920959-4.5359879,1.0526733 c-1.4694138,0.5180359-2.8538227,1.2627869-4.1640892,2.111908c-0.3312836,0.2110901-0.646513,0.4155884-0.9896049,0.6828613 l-0.9220734,0.7159424c-0.5298672,0.4259644-0.9846478,0.8613892-1.4722481,1.3001099 c-1.8413124,1.7605591-3.2635021,3.5697632-4.5100136,5.3624268c-1.3303356,1.6443787-2.3374147,3.4337463-3.1688156,5.2155762 c-1.9541817,3.6339722-3.5015178,7.250946-4.8273673,10.8778687c-1.3329329,3.6268921-2.4084888,7.2632446-3.3168669,10.9198914 c-1.7820456,7.3099976-2.8063617,14.709259-2.8380027,22.1623535 c-0.0132231,6.5680847-0.5579666,13.1418457,0.0632819,19.8789978c0.2200698,2.3097839,0.6994063,4.6290283,1.2628038,6.9968872 c-0.6245542,0.7348328-0.9841747,1.6321106-1.0611519,2.5822754c-0.2545442,2.0614014-0.381108,4.3442688-0.0887835,6.7985535 l0.179456,0.9525452c0.0850055,0.3744812,0.188665,0.7763672,0.2972831,1.163147 c0.2368347,0.7617493,0.5393127,1.5032043,0.8691811,2.2446289c0.6743768,1.4701233,1.608965,2.8420105,2.7610259,4.0249939 c1.9060116,1.8805237,4.0061197,3.5636292,6.4712791,4.7390747c0.3796911,0.1973877,0.7837029,0.3433228,1.1825209,0.51474 l0.8044825,0.4377747c0.1848869,0.1001282,0.3733158,0.1950684,0.5650501,0.2852478 c0.3829966,0.1808777,0.7782726,0.3414612,1.1806316,0.4812317c0.8028297,0.2767334,1.6436749,0.4802856,2.4604378,0.5671692 c2.7548847,0.1898499,5.4819088,0.493988,8.1659565,0.8174744c2.6639786,0.2734375,5.3083572,0.6153564,7.9402218,0.9997559 c5.2479095,0.6842957,10.4497719,1.550415,15.6412468,2.2687073c10.5298195,1.5201721,21.0837212,2.6724854,31.3800087,5.2500305 c0.9145203,0.2271423,1.8923187,0.2446289,2.7522888,0.6304626c9.3822479,4.2238159,19.4036865,5.7827454,29.2369308,8.0528564 c7.9206238,1.8143921,15.9739532,2.9794312,23.9805298,4.3480225c6.9754028,1.1395569,13.9484558,2.2795715,20.9257507,3.4195862 c0.7034149,0.1454468,1.4455566,0.3419189,2.1293793,0.4118042c0.6434479-0.0075684,1.2880707-0.0269165,1.9319916-0.053833 c1.2875977-0.053833,2.5702362-0.1379089,3.8415375-0.2271423l2.0309296-0.0595093 c0.3327026-0.0339966,0.6977539,0.052887,0.9801636-0.1553955c0.3105011-0.1633911,0.5829926-0.3447266,0.8476868-0.5303345 c1.0467529-0.7423706,1.9416656-1.6779175,2.7570038-2.7966614c1.6153412-2.2573853,2.755127-5.1740112,3.8429565-8.0301819 l0.7678833-2.0935059l0.4488831-1.2519531l0.858551-2.4901733c0.5567932-1.656189,1.0847626-3.3071899,1.5872498-4.9605408 c2.0039978-6.6101379,3.6280823-13.2660522,4.6200409-20.0929565c0.4344788-3.0134277,1.0590363-5.9891052,1.6842957-8.9907227 c0.3126221-1.500824,0.6259613-3.0073242,0.9131012-4.5331726l0.4533539-2.5487366 c0.2139282-1.2391968,0.4151154-2.4769592,0.5584412-3.7015381c0.2375488-1.9957275,0.3298645-3.9754028,0.042038-5.7487183 C187.3525696,430.8494568,187.1275482,430.0197144,186.811615,429.2286682z M170.0291595,437.0520325 c-0.1789856,0.4476929-0.4217224,0.6564026-0.3199463,0.7447205c0.1291656,0.0717773-0.1130981,0.3277588-0.5735474,0.3730774 c-0.1034241,0.0104065-0.1822968,0.0113525-0.2380219,0.0094604l-0.0661163-0.005188l-0.0203094-0.0028381 c-0.0075531,0.0080261-0.0042419-0.0264587-0.0316315,0.0925598c-0.1645813,0.697052-0.2488861,1.4200439-0.2472229,2.1421204 c0.0049591,5.0299683-0.5681305,10.1572266-1.3794556,15.2141113c-0.8188782,5.0644226-1.8890076,10.096283-3.0101318,15.0851746 c-0.5686035,2.5284424-1.149231,5.0512085-1.7766266,7.539032l-0.4812164,1.8554688l-0.248642,0.9194946l-0.0878448,0.4353943 c-0.1083832,0.5426331-0.2391968,1.1079102-0.402832,1.6807556c-0.1700134,0.5676575-0.3452148,1.1631775-0.657608,1.6854858 c-0.0746155,0.1279602-0.2052002,0.2512207-0.3527679,0.1917114l-0.4264526-0.0505066l-0.8691711-0.1213684 c-0.5846558-0.09021-1.1768646-0.198822-1.7582092-0.3272705l-3.3265381-0.7164307 c-0.9152222-0.2063599-1.8890076-0.20401-2.7527618-0.5733032c-9.4183807-4.015564-19.3925934-5.4833374-29.1861649-7.7170715 c-7.88237-1.7992859-15.890831-2.9837036-23.8357773-4.449585c-6.4679718-1.1791992-12.9427948-2.2781372-19.3930588-3.523468 c-1.5256119-0.4665833-3.1022263-0.7239685-4.6880493-0.9478149 c-13.1135139-2.7910156-26.1075478-6.0722351-39.3155136-7.7066956 c-2.9104939-0.3711853-5.8046932-0.9402466-8.5836658-1.6552429c-1.3931446-0.3499451-2.8271408-0.6856995-4.1886444-1.0521851 l-1.9981022-0.5647888l-1.0042458-0.2696838c-0.3152275-0.0835876-0.4332905-0.0939636-0.5530071-0.111908l-0.0661163-0.0080261 c-0.4231377-0.0070801-0.8609161-0.1133423-1.2769699-0.3131104c0.2578487-0.4240723,0.4068451-0.815094,0.4361248-1.2311707 c0.0798111-1.1626892,0.3700104-2.5501404,0.5792179-3.9570007c0.2077904-1.415802,0.3232574-2.8736572,0.0269184-4.3995056 c-0.2689476-1.4441528-0.1723728-2.960083,0.2087364-4.4949036c0.3556061-1.3851013,0.3645782-2.868927,0.0734348-4.2871094 c-1.0387192-4.9213257-1.3525314-10.1043091-1.2302189-15.2702942c0.1258564-5.1735229,0.6883087-10.355072,1.4956245-15.460144 c0.8229008-5.1687927,1.8890114-10.3158875,3.542841-15.1371155c0.8297482-2.3999634,1.8011703-4.729126,2.9768448-6.8193054 c1.1667004-2.0783997,2.5610256-3.9570313,4.023592-5.1791992c0.25667-0.2129822,0.4786282-0.4344788,0.7074356-0.6540833 l0.1744976-0.1303406l0.1105061-0.0661011c0.0621014-0.0368347,0.1728458-0.0802917,0.2876015-0.0845337 c1.2243156-0.133667,2.2351723,0.1926575,2.9508705,0.6729431c0.0897293,0.0623474,0.1761513,0.1223145,0.2571449,0.1893921 c0.1008224,0.0812073,0.0620995,0.0935059,0.3806343,0.2313843l1.6285629,0.756073l3.4533501,1.5593872 c4.6993866,2.09729,9.5480042,4.0916138,14.3033524,6.2686768c7.6613579,3.5164185,15.5848122,6.5038757,23.4060249,9.7336121 c6.3631363,2.6280823,12.7711334,5.1522827,19.1252899,7.8233337c1.4729614,0.7938538,3.0389481,1.3969116,4.620285,1.9678955 c12.9038315,5.6306458,25.6430893,11.6920166,39.1943817,15.817627 c5.9820251,1.8224182,11.6677094,4.4736328,17.5486755,6.6058655c3.712616,1.3459167,7.6781158,2.1515808,11.4766846,3.7279663 c0.2635193,0.9393005,0.8004608,1.6878357,1.3763733,2.1978455 C170.293869,435.9407959,170.2201843,436.6090393,170.0291595,437.0520325z M229.6114044,347.8496094l-0.3572693,0.2696533 c-0.00354-0.005188-0.0066071-0.0089722-0.0101471-0.0141602l0.0115662-0.0084839l0.0231476-0.0170288l0.0467529-0.0339966 l0.0942078-0.0670471L229.6114044,347.8496094z M266.4709778,40.6326942h0.0016479 C266.4669495,40.6525269,266.4671936,40.6492233,266.4709778,40.6326942z" fill="inherit"/></g></g></g></g></svg>