<?xml version="1.0" encoding="UTF-8" standalone="no"?><svg xmlns="http://www.w3.org/2000/svg" xmlns:xlink="http://www.w3.org/1999/xlink" fill="#131414" height="382.4" preserveAspectRatio="xMidYMid meet" version="1" viewBox="-1.2 -1.4 349.9 382.4" width="349.9" zoomAndPan="magnify"><g id="change1_1"><path d="M331.232,250.776c-1.846,2.257-4.242,3.994-6.936,5.056c-0.547,0.303-1.099,0.588-1.652,0.856 c-4.767,2.304-9.987,3.474-15.513,3.474c-0.001,0-0.004,0-0.005,0c-4.632,0-9.488-0.847-14.474-2.522 c-30.126,0.934-81.414,3.202-121.112,8.445l-2.846,17.264c-0.51,3.066-1.837,5.92-3.843,8.271l-7.677,9.017l0.667,12.896 l19.495,10.711c3.661,2.008,6.45,5.291,7.845,9.238l5.688,16.158c1.686,4.802,1.151,10.044-1.461,14.395 c-2.616,4.358-6.999,7.294-12.024,8.057l-57.318,8.718c-0.811,0.126-1.687,0.193-2.557,0.193c-4.007,0-7.899-1.422-10.961-4.005 l-14.184-11.945c-2.593-2.184-4.455-5.059-5.39-8.315l-19.407-67.558c-0.812,0.118-1.629,0.177-2.448,0.177 c-6.473,0-12.479-3.765-15.301-9.59l-0.554-1.146c-1.126,0.075-2.253,0.112-3.382,0.112c-10.271,0-19.916-3.062-27.896-8.853 c-9.983-7.247-16.268-17.938-17.692-30.105c-1.485-12.7,2.679-25.82,11.425-35.997c0.29-0.338,0.585-0.671,0.884-1.001 c-3.429-7.302-1.243-16.049,5.234-20.87c0.297-0.222,7.837-5.857,29.894-23.097c8.548-6.691,18.021-14.138,28.148-22.126 c31.674-25.021,82.594-83.815,104.944-110.274c4.858-13.484,13.117-19.914,19.411-22.957c0.577-0.279,1.166-0.543,1.762-0.791 c2.475-1.417,5.283-2.204,8.152-2.258c11.802-1.773,30.176,1.576,54.136,24.642c19.35,18.627,38.392,46.232,53.617,77.73 c15.227,31.5,25.032,63.571,27.61,90.303C348.702,226.142,339.939,242.62,331.232,250.776z" fill="#292a27"/></g><g id="change2_1"><path d="M167.756,341.201l4.389,12.469l-54.041,8.219l-13.034-10.978l-23.19-80.728 c5.315-1.313,12.138-2.982,20.77-5.063c9.003-2.185,19.849-4.766,33.254-7.943l0.256,4.943l-21.927,6.299l1.104,3.845l21.036-6.042 l0.853,16.503l-21.789,6.259l1.104,3.845l20.898-6.003l1.921,37.149c0.035,0.692,0.427,1.316,1.034,1.65l21.497,11.81l-27.024,1.091 c-0.298,0.012-0.589,0.091-0.853,0.23l-12.675,6.69l1.867,3.537l12.274-6.479L167.756,341.201z M55.279,177.021 c-14.639,11.419-22.019,17.046-24.775,19.131l35.7,73.851c3.349-0.869,12.326-3.159,30.381-7.533L55.279,177.021z M314.38,239.579 c-10.039,4.853-25.566-1.774-42.604-18.175c-17.77-17.106-35.416-42.788-49.688-72.312c-14.272-29.524-23.437-59.306-25.805-83.857 c-2.27-23.541,2.185-39.825,12.221-44.677c2.156-1.042,4.564-1.555,7.188-1.555c9.588,0,22.037,6.852,35.415,19.729 c17.77,17.106,35.416,42.788,49.688,72.312c14.272,29.524,23.437,59.306,25.805,83.857 C328.871,218.443,324.416,234.728,314.38,239.579z M292.646,112.554c-21.66-44.806-54.753-85.98-72.626-77.34 c-11.105,5.369-11.692,28.489-1.574,61.834c0.458,1.551,0.96,3.117,1.472,4.702c4.085,12.533,9.333,25.46,15.599,38.421 c6.269,12.97,13.142,25.118,20.429,36.108c0.925,1.39,1.852,2.744,2.764,4.069c0.001,0.001,0.002,0.002,0.003,0.003 c0,0,0.001,0.001,0.001,0.001c17.036,24.587,33.064,38.308,44.288,38.308c1.853,0,3.575-0.375,5.148-1.135 C326.029,208.882,314.307,157.366,292.646,112.554z" fill="#393b39"/></g><g id="change3_1"><path d="M330.582,194.518c-2.412-25.011-11.712-55.274-26.185-85.214c-14.473-29.94-32.413-56.026-50.516-73.452 c-16.46-15.846-31.468-22.911-42.881-20.358c-0.107-0.031-0.213-0.068-0.327-0.081c-0.633-0.075-1.26,0.171-1.692,0.639 c-0.757,0.256-1.496,0.556-2.217,0.905c-5.915,2.86-10.155,8.629-12.602,16.904C169.195,63.511,118.077,122.466,85.17,148.46 c-10.074,7.947-19.562,15.406-28.201,22.168c-22.576,17.645-30.102,23.256-30.175,23.311c-0.77,0.573-1.023,1.611-0.606,2.475 l4.927,10.193c-2.944,1.885-5.66,4.202-8.019,6.947c-6.022,7.007-8.902,15.928-7.902,24.475c0.932,7.954,5.053,14.954,11.605,19.71 c5.573,4.045,12.275,5.992,19.084,5.992c3.995,0,8.024-0.679,11.884-1.99l5.552,11.485c0.341,0.704,1.049,1.129,1.801,1.129 c0.172,0,0.346-0.022,0.519-0.068c0.054-0.015,3.443-0.921,12.357-3.14l23.399,81.454c0.109,0.381,0.33,0.722,0.634,0.978 l14.193,11.954c0.362,0.306,0.819,0.47,1.288,0.47c0.1,0,0.2-0.007,0.301-0.023l57.324-8.718c0.589-0.089,1.107-0.437,1.414-0.948 s0.369-1.131,0.172-1.693l-5.682-16.141c-0.164-0.464-0.492-0.852-0.924-1.089l-26.821-14.735l-1.406-27.201l11.556-13.574 c0.236-0.277,0.392-0.612,0.451-0.971l4.634-28.112c42.703-6.654,103.737-9.268,136.565-10.238c4.273,1.714,8.31,2.603,12.038,2.603 c3.236,0,6.247-0.655,8.989-1.981c0.716-0.346,1.406-0.736,2.072-1.167c0.641-0.043,1.228-0.382,1.568-0.932 c0.062-0.101,0.102-0.21,0.146-0.319C328.994,233.401,332.775,217.254,330.582,194.518z M29.149,254.502 c-5.638-4.092-9.183-10.107-9.981-16.938c-0.884-7.549,1.589-15.15,6.962-21.402c1.994-2.32,4.271-4.302,6.735-5.937l23.159,47.909 C46.907,261.096,36.805,260.06,29.149,254.502z M66.205,270.003l-35.7-73.851c2.756-2.085,10.136-7.712,24.775-19.131l41.306,85.449 C78.53,266.844,69.554,269.134,66.205,270.003z M161.888,337.434l-27.024,1.091c-0.298,0.012-0.589,0.091-0.853,0.23l-12.675,6.69 l1.867,3.537l12.274-6.479l32.278-1.302l4.389,12.469l-54.041,8.219l-13.034-10.978l-23.19-80.728 c5.315-1.313,12.138-2.982,20.77-5.063c9.003-2.185,19.849-4.766,33.254-7.943l0.256,4.943l-21.927,6.299l1.104,3.845l21.036-6.042 l0.853,16.503l-21.789,6.259l1.104,3.845l20.898-6.003l1.921,37.149c0.035,0.692,0.427,1.316,1.034,1.65L161.888,337.434z M150.038,279.71l-8.451,9.927l-1.726-33.378c4.464-0.997,9.328-1.926,14.502-2.79L150.038,279.71z M252.425,240.274 c-3.834-1.945-37.441-20.432-56.123-78.567l-3.809,1.224c15.671,48.765,41.124,70.168,52.663,77.732 c-37.638,2.092-81.263,5.784-108.541,12.236c-14.173,3.358-25.534,6.06-34.907,8.334c-0.388,0.094-0.764,0.184-1.145,0.276 l-42.058-87.005c0.313-0.245,0.608-0.475,0.928-0.725c8.645-6.766,18.137-14.228,28.215-22.179 c31.175-24.626,78.41-78.412,104.783-109.496c-0.928,6.745-0.985,14.626-0.128,23.516c2.412,25.011,11.711,55.274,26.185,85.214 c14.473,29.94,32.413,56.026,50.516,73.452c6.442,6.202,12.659,11.047,18.529,14.51 C277.404,239.132,265.379,239.608,252.425,240.274z M314.38,239.579c-10.039,4.853-25.566-1.774-42.604-18.175 c-17.77-17.106-35.416-42.788-49.688-72.312c-14.272-29.524-23.437-59.306-25.805-83.857c-2.27-23.541,2.185-39.825,12.221-44.677 c2.156-1.042,4.564-1.555,7.188-1.555c9.588,0,22.037,6.852,35.415,19.729c17.77,17.106,35.416,42.788,49.688,72.312 c14.272,29.524,23.437,59.306,25.805,83.857C328.871,218.443,324.416,234.728,314.38,239.579z M220.02,35.214 c-11.105,5.369-11.692,28.489-1.574,61.834c0.458,1.551,0.96,3.117,1.472,4.702c4.085,12.533,9.333,25.46,15.599,38.421 c6.269,12.97,13.142,25.118,20.429,36.108c0.925,1.39,1.852,2.744,2.764,4.069c0.001,0.001,0.002,0.002,0.003,0.003 c0,0,0.001,0.001,0.001,0.001c17.036,24.587,33.064,38.308,44.288,38.308c1.853,0,3.575-0.375,5.148-1.135 c17.88-8.644,6.158-60.16-15.503-104.971C270.986,67.748,237.893,26.574,220.02,35.214z M260.801,176.327 c-0.507-0.744-1.017-1.498-1.524-2.261c-6.288-9.483-12.267-19.848-17.81-30.872c-0.792-1.575-1.575-3.163-2.349-4.764 c-6.188-12.799-11.368-25.557-15.396-37.915c-0.28-0.867-0.558-1.731-0.827-2.59c27.004-6.209,51.528,1.581,60.092,19.298 C291.551,134.939,282.431,159.007,260.801,176.327z" fill="inherit"/></g><g id="change4_1"><path d="M139.861,256.258c4.464-0.997,9.328-1.926,14.502-2.79l-4.326,26.242l-8.451,9.927L139.861,256.258z M26.129,216.161c-5.373,6.252-7.846,13.853-6.962,21.402c0.799,6.831,4.344,12.846,9.981,16.938 c7.656,5.558,17.758,6.595,26.875,3.632l-23.159-47.909C30.401,211.859,28.123,213.841,26.129,216.161z M252.425,240.274 c12.954-0.665,24.979-1.141,35.107-1.479c-5.869-3.463-12.086-8.308-18.529-14.51c-18.103-17.426-36.043-43.512-50.516-73.452 c-14.474-29.94-23.772-60.203-26.185-85.214c-0.857-8.889-0.8-16.771,0.128-23.516c-26.374,31.084-73.608,84.87-104.783,109.496 c-10.078,7.951-19.57,15.413-28.215,22.179c-0.319,0.25-0.614,0.48-0.928,0.725l42.058,87.005c0.381-0.092,0.757-0.183,1.145-0.276 c9.373-2.274,20.734-4.976,34.907-8.334c27.278-6.452,70.904-10.144,108.541-12.236c-11.54-7.564-36.992-28.967-52.663-77.732 l3.809-1.224C214.985,219.842,248.591,238.329,252.425,240.274z M239.118,138.43c0.774,1.601,1.557,3.189,2.349,4.764 c5.543,11.024,11.522,21.389,17.81,30.872c0.508,0.764,1.018,1.517,1.524,2.261c21.63-17.32,30.75-41.387,22.186-59.103 c-8.563-17.717-33.088-25.508-60.092-19.298c0.27,0.859,0.547,1.723,0.827,2.59C227.749,112.873,232.93,125.63,239.118,138.43z" fill="#8f9091"/></g></svg>