<?xml version="1.0" encoding="UTF-8" standalone="no"?><svg xmlns="http://www.w3.org/2000/svg" xmlns:xlink="http://www.w3.org/1999/xlink" fill="#000000" height="365.1" preserveAspectRatio="xMidYMid meet" version="1" viewBox="-0.3 -0.2 500.4 365.1" width="500.4" zoomAndPan="magnify"><g id="Layer_2"><g><g id="change1_1"><path d="M256.8199768,169.9837494c0,0-67.0986328-110.8363342-114.3536987-64.1586151 c-37.5952988,37.1359863,85.4895782,159.79599,116.7060547,188.3575439 c52.9659729-44.5950165,155.2392273-187.8590088,87.8208618-206.9930115 C289.8937378,70.9842682,256.8199768,169.9837494,256.8199768,169.9837494" fill="#2b2b2b"/></g><g id="change2_1"><path d="M380.1649475,116.4868698c-0.2550964-4.5863876-1.0175171-9.379158-2.7209167-14.1524124 c-1.6812744-4.7565536-4.414032-9.4701233-8.09021-13.2972031c-3.65271-3.8635406-8.1176453-6.6772537-12.5697937-8.5802841 l-3.3586426-1.2815628l-3.3522034-0.9837952c-1.1155396-0.3076477-2.2131653-0.4886627-3.3197632-0.7302856l-1.6554871-0.3346558 c-0.5549316-0.100235-1.1265259-0.151268-1.6886597-0.2268677c-4.480835-0.6873627-9.1228943-0.6246262-13.6312561-0.0886459 c-1.1250916,0.1716232-2.2621765,0.2720413-3.3677979,0.5193329l-3.3098755,0.7423553 c-2.1567688,0.6287689-4.3192749,1.2499847-6.3565063,2.1163559c-4.1148376,1.6387787-7.9854431,3.6937408-11.4970703,6.0974426 c-3.5154724,2.397049-6.8157349,5.0038376-9.7873535,7.8493805c-5.9992371,5.6488342-11.0555725,11.9186935-15.5029907,18.4474945 c-4.4501343,6.5320282-8.3057556,13.3314667-11.7666931,20.2662582 c-3.6340027,7.2900543-6.7501221,14.7753296-9.4226379,22.381073 c-8.2965393-16.2421722-19.2729492-32.1556778-31.5561218-45.1901627 c-6.9122314-7.3357849-14.2542267-13.7195358-21.5700684-18.740448 c-7.2829895-5.0454865-14.6749878-8.5683899-20.7614441-10.7579727c-3.2467804-1.1395035-6.6935425-2.074646-10.3318024-2.6528778 c-3.6376495-0.5840836-7.4910126-0.751503-11.3761902-0.5017776c-3.8901215,0.2342453-7.828598,0.9961777-11.578186,2.1910477 c-1.9024658,0.557251-3.6944733,1.3188171-5.5009155,2.0692215c-1.7368927,0.8274689-3.5013275,1.6621933-5.1028595,2.6475754 c-1.6734772,0.9350815-3.1711121,1.9958191-4.7024689,3.0521622c-0.7546844,0.5334854-1.4427795,1.1009827-2.1628113,1.6579285 c-0.7099304,0.5612869-1.4357605,1.1212234-2.0775757,1.7125626l-1.9743042,1.7673645 c-0.171875,0.1602859-0.3092957,0.2699738-0.5089111,0.4724503l-0.6013336,0.6188354l-1.1872482,1.2560196 c-0.3902588,0.4250717-0.7842407,0.8430786-1.1602402,1.2838211l-1.0787811,1.3877716 c-0.7002258,0.9411774-1.4350281,1.8583984-2.0267868,2.8763962c-2.5855713,3.9596252-4.3140411,8.3700562-5.3552094,12.6047745 c-0.576767,2.1551361-0.8363724,4.2068558-1.1091461,6.2816925l-0.2232056,3.0149765 c-0.0793839,1.0200119-0.0385971,1.9425278-0.0512161,2.9197998c-0.0340805,1.968689,0.1493759,3.7449493,0.2706375,5.6070099 l0.3262482,2.6446533l0.1757736,1.3187561l0.2234497,1.2649841l0.462204,2.5286865l0.5537262,2.4260712 c0.3547134,1.6449432,0.8153915,3.1509399,1.2387009,4.7183838c1.7745056,6.1478577,4.042305,11.7273712,6.4414291,17.0951996 c4.838623,10.6935883,10.3451538,20.4419098,16.0326996,29.9224548 c3.4594269,5.7526703,7.1150665,11.3082123,10.9141083,16.7117157 c3.8156128,5.3912964,7.7898712,10.6175537,11.8661346,15.7271118 c8.1442261,10.2265625,16.7733459,19.9247131,25.6754761,29.2947845 c8.9028168,9.3705444,18.0638275,18.427002,27.4375458,27.2488403l7.0791626,6.5670776l7.2609711,6.5918579 c4.4742126,4.024292,8.8834229,8.0744629,13.2911072,11.9140625l13.0651703,11.3765564l11.2341309-10.2204895l2.761322-2.5059204 l2.7308655-2.5665588l2.7175903-2.5715637l2.6524963-2.6634827c0.8784485-0.8912354,1.7756042-1.7611389,2.6359253-2.6664124 l2.3367004-2.4552002l2.846405-3.0957642c1.8851013-2.0684509,3.7413635-4.1468811,5.5666504-6.2405396 c7.3201599-8.361908,14.3006897-16.8747559,21.0953674-25.513916 c11.1253662-13.883728,21.091217-28.6261292,30.1538391-43.9715271 c4.4977417-7.6992188,8.8025513-15.5233612,12.8117676-23.5566254 c4.0317993-8.0160065,7.7792664-16.2292023,11.1571655-24.7012024c2.9423828-7.4480743,5.581543-15.1068726,7.5472412-23.1791077 C379.2685852,134.184082,380.6358032,125.690979,380.1649475,116.4868698z M352.3582458,127.3984756 c-0.8811951,4.2331924-2.1447754,8.6456375-3.6899719,13.0817337 c-3.0968628,8.8915405-7.2289734,17.8634796-11.7893677,26.7151337 c-4.5525513,8.8702393-9.64151,17.6289825-15.0108032,26.2624207 c-10.1577759,16.275116-21.5192261,32.0194244-33.6497192,47.0457001 c-6.0501404,7.5266113-12.324585,14.8538666-18.7732544,21.920517c-1.6193237,1.7556763-3.2419128,3.5056152-4.881897,5.2252808 l-1.23172,1.2854919l-0.618042,0.6383362c-0.0669861,0.0685425-0.080719,0.084259-0.0848694,0.0914612l-0.0307617,0.0405884 l-0.057312,0.0863342l-0.5059814,0.6378479c-0.6908569,0.8539429-1.4752808,1.8456726-2.3830566,2.7592163 c-0.0499878,0.1429138-0.0966797,0.0604858-0.1445313,0.035614l-0.1440735-0.0950012l-0.2923584-0.1946106l-0.6017456-0.4072571 l-1.276825-0.8888245l-0.6776123-0.4830933l-0.3491516-0.2516785l-0.1768799-0.1289063 c-0.055542-0.0465698-0.0954895-0.0586548-0.3372803-0.288269l-4.6601715-4.3008423 c-6.203949-5.7548828-12.3672943-11.5778961-18.5152893-17.421402 c-9.2700806-8.8397675-18.2518921-17.9805298-26.9086304-27.3833313 c-8.651001-9.4054413-17.0274658-19.0404205-24.9138031-28.9759216 c-7.9004669-9.9144592-15.3800201-20.1115723-21.9542999-30.6349335 c-3.256897-5.2638702-6.3241882-10.6102448-8.8834076-16.0368958c-2.5585022-5.4158783-4.7189941-10.9286957-5.8551636-16.2971802 c-1.1377411-5.0971909-1.1190186-9.9605637,0.3633881-13.918602c0.0969391-0.246254,0.1656494-0.5112228,0.2798462-0.7485199 l0.3545837-0.7063217c0.1199951-0.2350998,0.2207794-0.4836655,0.3509979-0.7149811l0.4328308-0.6694412l0.4239044-0.6835251 l0.5144653-0.6326065l0.5060425-0.6475525c0.1950378-0.2271118,0.453064-0.4740982,0.6763916-0.7112656 c1.8199158-1.9714279,3.8185425-3.6805725,5.942276-5.1376724c4.2380066-2.9294968,9.0779572-4.7142334,14.2962341-5.0128021 c5.2115631-0.3209991,10.709198,0.7575378,16.0383606,2.7256165c5.34729,1.9551544,10.5187836,4.8149033,15.4816589,8.058876 c4.9502563,3.2843323,9.6994324,6.9928894,14.2477112,10.9745255c9.09729,7.9759598,17.4824677,16.9162521,25.3278961,26.3147964 c4.9878693,5.9715424,10.2994232,11.7452393,15.2295532,17.8626251c0.3548431,0.4377594,0.7455292,0.8388062,1.167984,1.184021 c0.0187073,1.2364502,0.3339844,2.2994385,1.1705322,2.895401c1.5119019,1.0661163,2.7105713-0.4871368,3.7290955-2.187439 c0.2897949-0.1266327,0.5847168-0.2746582,0.8887634-0.4631195c1.698761-1.1417084,1.8014526-2.339859,1.4147644-3.5589447 c1.6225891-2.9904633,4.4091187-8.2618256,8.361969-14.7511749c5.2111816-8.530899,12.420105-19.3058167,21.4999695-28.9147644 c2.266571-2.3900452,4.6263123-4.7223511,7.0873718-6.8755264c1.2076111-1.1114655,2.4852295-2.1086121,3.7288818-3.1406326 l1.9155579-1.4477081c0.6304932-0.4922638,1.276886-0.9473953,1.9308472-1.3788147 c5.1644287-3.5965576,10.546814-6.1620102,15.5361023-7.4699707c2.4969788-0.6796265,4.9075012-0.9355087,7.1738281-1.0898819 c2.2795105,0.0071945,4.419281,0.0531006,6.4487,0.4743958c0.5068359,0.0971832,1.0036621,0.1359634,1.4961853,0.2596054 c0.4910889,0.1257782,0.9756775,0.2499771,1.4533691,0.3723984c0.9519653,0.1814423,1.8777161,0.5590286,2.7698669,0.8373489 c1.8057251,0.5634155,3.1677246,1.2694321,4.3562927,1.8597946c0.3440552,0.1791916,0.6206055,0.3969116,0.9382629,0.5790253 c0.3163757,0.1830902,0.6272583,0.3644714,0.8633118,0.5845718c0.2558899,0.2074127,0.5263367,0.3972092,0.7843628,0.5891418 c0.2104187,0.2220459,0.426239,0.4312897,0.6498718,0.6293182c0.8010864,0.8618546,1.4791565,1.6666489,1.9630737,2.6743393 c0.4857483,1.0119629,0.9440613,2.1095276,1.2528687,3.4788284c0.0946045,0.3236847,0.1244202,0.7201691,0.2022705,1.0714111 l0.1089172,0.5398178l0.0610046,0.5937729l0.1366577,1.1923676l0.0545044,1.2862625 C353.7280884,119.0728683,353.2150269,123.1875381,352.3582458,127.3984756z M412.0403137,70.2431564 c0.2596436-0.9848328,0.4356079-2.0406342,0.8953857-2.8616409c2.8911438-5.1697998,5.9248352-10.2230873,8.5107117-15.6454201 c2.712677-5.737175,6.6010437-10.5012283,9.5117493-16.0697632c3.2058105-6.1173191,7.5830078-11.2588902,11.7326965-16.5900745 c3.0753784-3.9520664,6.5084839-7.6046543,10.4610291-10.8228388c1.6698303-1.3742394,5.2739563-3.201539,8.4376831-4.8736124 c3.1913452-1.6490875,5.9236145-3.1585565,6.5750122-3.2929928c0.3544006-0.0658464,0.754303-0.3364875,1.7444458,0.602556 c0.9017334,0.8549673,0.8380737,1.3859456,0.7172241,1.7213356c-0.4405518,1.205112-0.940979,2.3658996-1.4891663,3.4866304 c-1.6060486,3.3102474-3.2886658,6.5583057-5.0671082,9.7272882c-1.778717,3.1687374-3.6477356,6.263216-5.5223999,9.3531208 c-2.1489563,3.5120544-3.7492676,7.4800949-6.3174133,10.6451759c-2.5083313,3.4240761-4.4515381,7.3188934-6.5672607,11.0696411 c-2.1253967,3.7426987-4.4126282,7.3501701-7.9040222,9.9537888c-4.0233459,3.0223503-6.6346436,7.2241478-11.0882874,9.8784904 c-1.0428162,0.6317596-2.3973083,2.000145-4.2192383,3.3503647c-1.8197327,1.3519897-4.1159668,2.6783066-6.8070679,3.4219437 c-0.2912292,0.0805359-0.401886,0.3434372-1.8041382-0.8124695 C412.3251343,71.2357864,411.9578552,70.5667801,412.0403137,70.2431564z M499.9950562,181.629364 c-0.052063,1.20578-0.481842,1.4975281-0.804657,1.6226959c-1.164093,0.4451294-2.3338318,0.8180084-3.5046387,1.1304169 c-3.4498596,0.9323425-6.9028931,1.7689514-10.3590393,2.484848c-3.4562073,0.7156525-6.9154053,1.3177948-10.3749695,1.9127808 c-3.9437561,0.6629791-7.8720398,2.0187988-11.8286438,2.1534271c-4.1082458,0.3434906-8.201416,1.4012451-12.2989502,2.2407227 c-4.0977783,0.827301-8.199585,1.4497833-12.3329773,0.549881c-4.7792969-1.022995-9.5232239-0.2592316-14.3070374-1.8321686 c-1.1276245-0.3617401-2.9938049-0.4825134-5.1445618-0.9574585c-2.1506653-0.4722748-4.5861206-1.3101044-6.8461914-2.8087158 c-0.2445984-0.1621857-0.5078735-0.0757294-0.5541992-1.8401642c-0.0500488-1.9063873,0.2061768-2.6019135,0.4959717-2.747757 c0.8873596-0.4371948,1.7733459-0.9811096,2.6681213-1.1673126c5.6318359-1.1754761,11.2690735-2.1721344,16.891449-3.7323303 c5.9339905-1.6678009,11.9038696-1.8537598,17.8404236-3.2690277c6.5268555-1.5485535,13.085022-1.6167755,19.6371155-1.9726563 c4.8566589-0.2643585,9.7218018-0.0756531,14.5994873,0.7705841c2.0715027,0.3482056,5.7076111,1.82547,8.9494019,3.0788116 c3.2424927,1.2882843,6.0901794,2.32901,6.6037903,2.7208099 C499.5991211,180.1845245,500.0523071,180.3051758,499.9950562,181.629364z M456.1472473,332.4837646 c0.1136475,0.3551941,0.4433594,0.7306519-0.3921509,1.8690491c-0.7607117,1.0365906-1.3140869,1.0402527-1.6741028,0.9596558 c-1.2943726-0.2958069-2.5509338-0.6589355-3.7727051-1.0762329c-3.606781-1.2192383-7.1595764-2.5250854-10.6437073-3.9396667 c-3.4839478-1.414856-6.9032593-2.9320068-10.3187256-4.4556274c-3.8843994-1.7503967-8.1657104-2.8782043-11.748291-5.1040649 c-3.8406982-2.1307373-8.0913696-3.6202087-12.2164612-5.3053894c-4.1181641-1.6962891-8.1185303-3.5762024-11.2444458-6.8226624 c-3.6249084-3.7382507-8.2774658-5.8736267-11.5803833-10.1014709c-0.7839355-0.9885559-2.364502-2.2014771-3.9870605-3.896637 c-1.6241455-1.692749-3.283783-3.8779907-4.3964233-6.5441589c-0.1204529-0.2885132-0.4047546-0.3680115,0.5999451-1.9576111 c1.0855408-1.7173462,1.7247009-2.1812134,2.067627-2.1386414c1.0447083,0.1387634,2.1514893,0.1824036,3.0540161,0.5478516 c5.6825256,2.2971802,11.2640076,4.7558289,17.1662903,6.7068176c6.2418213,2.0404053,11.6372986,5.4139404,17.731781,7.6794128 c6.6961365,2.4972839,12.542572,6.323822,18.5541687,9.8919678c4.4563599,2.6444702,8.6516724,5.6948547,12.4684448,9.3349609 c1.6275024,1.5359192,3.9711609,4.9988403,6.0982971,8.0297241 C454.0204468,329.2233887,455.9247742,331.832489,456.1472473,332.4837646z M169.1221466,302.5778809 c1.2776031,1.5296021,1.5187988,2.2658691,1.375946,2.5732727c-0.4434814,0.9337769-0.8166809,1.9542847-1.4291077,2.6872559 c-3.8522644,4.6162109-7.8249359,9.0895996-11.4199677,14.0150452c-3.7805023,5.2156677-8.5516815,9.240448-12.4980774,14.250885 c-4.3436127,5.5026855-9.6731567,9.8125916-14.8111877,14.3541565c-3.8081207,3.3669434-7.9170609,6.3680725-12.4627838,8.8386536 c-1.9232025,1.0584412-5.860939,2.2064819-9.3303146,3.2823486c-3.4925461,1.0476685-6.5009995,2.0419617-7.1760483,2.0541382 c-0.3658676-0.0005798-0.8155136,0.194519-1.6275024-0.9276733c-0.7394943-1.0218506-0.5765839-1.5396118-0.3932495-1.8516541 c0.6651688-1.119751,1.3817368-2.1841431,2.1384888-3.199646c2.2220688-3.0017395,4.5088348-5.9270325,6.876442-8.7554932 c2.3678513-2.8282166,4.8117294-5.5654907,7.2605438-8.2971497c2.8015213-3.1013489,5.1409607-6.7604675,8.2956772-9.4372559 c3.1434937-2.9462585,5.8113708-6.4680786,8.6243591-9.8138123c2.8210907-3.335968,5.7783966-6.5067139,9.749054-8.4504089 c4.5797424-2.2619324,7.9715729-5.9649353,12.9116974-7.7791443c1.1585846-0.4350586,2.7661591-1.5465393,4.8365479-2.5525208 c2.0686035-1.0080566,4.6077881-1.9012451,7.4317474-2.1392822 C167.7800446,301.4037476,167.9396515,301.1622009,169.1221466,302.5778809z M104.8813858,214.2920074 c-5.5044632,3.4301758-11.0842133,6.6732941-16.4294205,10.507019 c-5.6331635,4.0686493-11.8796158,6.5827637-17.6136246,10.3850861 c-6.3069916,4.1725311-13.2217827,6.7904205-20.0184746,9.7103424c-5.0377426,2.1650085-10.2603416,3.8538361-15.7514458,4.851532 c-2.32761,0.4355621-6.7496262,0.2833862-10.6673069,0.2152252c-3.9319477-0.1048737-7.3499279-0.1010895-8.0456448-0.3164215 c-0.3747139-0.1240234-0.9012423-0.0758514-1.3546066-1.4996033c-0.4130039-1.2964325-0.0713339-1.7720032,0.2217436-2.0297699 c1.0593348-0.9229584,2.1526308-1.771759,3.2706175-2.5569153c3.2894573-2.3259735,6.6194572-4.5516968,9.9996357-6.6511078 c3.3803005-2.0989685,6.8078537-4.0789948,10.2385139-6.051651c3.9167671-2.2325592,7.5482597-5.1924133,11.6837196-6.8707123 c4.2149048-1.958252,8.1366081-4.666626,12.1476326-7.1457367c4.0160255-2.4662018,8.115818-4.7172241,12.8399391-5.3692322 c5.4555588-0.7724152,10.1802216-3.4221802,15.8539886-3.6143036c1.3338776-0.0548706,3.3559799-0.6514435,5.8167419-0.9836121 c2.45961-0.3349609,5.362587-0.3935547,8.3363419,0.3153381c0.3219223,0.0766907,0.5669556-0.1170044,1.3008957,1.7325592 c0.7930222,1.9982452,0.7917404,2.8338928,0.5416489,3.1007538 C106.4828568,212.8280182,105.7561646,213.7476196,104.8813858,214.2920074z M27.101244,77.5115662 c-5.1869316-2.8659668-10.0898094-6.2052994-14.5807199-10.231926c-1.9144249-1.6984787-4.7150936-5.5743942-7.2532301-8.9642029 c-2.5163097-3.4262733-4.7847805-6.3416862-5.0620065-7.0783119c-0.1424234-0.4021492-0.5325027-0.8196678,0.3825191-2.1503143 c0.8330185-1.2117577,1.4654493-1.2352295,1.8797941-1.1559067c1.4900198,0.2927094,2.9391291,0.6635857,4.3503771,1.0976219 c4.1657019,1.2668114,8.2727518,2.6345291,12.3051147,4.1289368c4.0321808,1.4947777,7.9941254,3.1086845,11.9518013,4.7300911 c4.5017624,1.8642502,9.4353065,3.002964,13.6087532,5.4211769c4.4651833,2.3004761,9.3763504,3.8535385,14.1510124,5.6348724 c4.7669754,1.7940674,9.4057961,3.8022614,13.0931969,7.4032745c4.2750244,4.1455765,9.668335,6.4229507,13.5925369,11.139389 c0.9308167,1.1023788,2.7802429,2.4333267,4.6946106,4.3139801c1.916069,1.8777771,3.8899384,4.3172684,5.2555771,7.3258438 c0.14785,0.3255692,0.4756241,0.4064178-0.6169434,2.2587738c-1.1804199,2.0013046-1.8946686,2.5539856-2.2882233,2.5173492 c-1.1990738-0.1218796-2.4657059-0.1328583-3.5102234-0.5188522c-6.576416-2.4259491-13.0429001-5.0400543-19.8582535-7.0626373 c-7.2067108-2.1127548-13.4927902-5.7792435-20.5389099-8.1544724 C40.9160118,85.5472107,34.098465,81.3788834,27.101244,77.5115662z" fill="#696a6b"/></g></g></g></svg>